<svg version="1.1" id="Layer_1" xmlns="http://www.w3.org/2000/svg" xmlns:xlink="http://www.w3.org/1999/xlink" x="0px" y="0px"
	 width="100%" viewBox="0 0 532 199" enable-background="new 0 0 532 199" xml:space="preserve">
<path fill="#000000" opacity="1.000000" stroke="none" 
	d="
M309.000000,1.000000 
	C313.689240,1.000000 318.378510,1.000000 323.829071,1.337374 
	C323.726929,3.519313 322.133759,5.355909 322.113525,7.209689 
	C321.922638,24.689375 321.882080,42.173161 322.055847,59.653202 
	C322.129272,67.038948 326.266235,72.093170 334.469818,72.027634 
	C347.455444,71.923904 360.452454,71.691299 373.425507,72.108513 
	C382.075531,72.386696 387.155975,67.074821 387.046356,58.257198 
	C386.872528,44.273941 387.174591,30.283617 386.908264,16.303274 
	C386.810913,11.191921 385.666656,6.100509 385.000000,1.000000 
	C388.030609,1.000000 391.061188,1.000000 394.849274,1.365452 
	C395.071167,3.379553 394.078613,5.025715 394.069611,6.677227 
	C393.961884,26.476873 394.082214,46.277908 393.938507,66.077095 
	C393.905243,70.660393 395.746216,72.279831 400.165985,72.053314 
	C404.812653,71.815170 409.480988,72.003670 414.139862,71.999069 
	C420.011353,71.993271 420.943115,71.082245 420.993561,65.176842 
	C421.027679,61.183804 420.836700,57.179886 421.088348,53.202473 
	C421.178192,51.782524 422.273254,50.426170 422.909485,49.040775 
	C423.939545,50.027554 425.295471,50.837624 425.943115,52.031822 
	C428.703522,57.121525 430.963989,62.506283 434.021118,67.399620 
	C435.288696,69.428543 437.996613,71.588890 440.222839,71.792252 
	C446.642365,72.378693 453.150116,71.999405 460.429138,71.999405 
	C459.759888,69.777565 459.467773,67.908112 458.666290,66.291145 
	C452.956482,54.771488 447.040131,43.352543 441.481812,31.761402 
	C440.722046,30.177004 440.819153,27.238373 441.822388,25.912756 
	C446.538849,19.680845 451.821747,13.880846 456.653076,7.730789 
	C458.168732,5.801425 458.906281,3.260818 460.000000,0.999999 
	C464.356903,1.000000 468.713806,1.000000 473.822937,1.296316 
	C469.818481,4.501046 467.105133,8.805962 467.057190,14.307248 
	C466.904846,31.800602 466.941223,49.296505 467.054657,66.790451 
	C467.075714,70.040672 468.491516,72.274300 472.494781,72.065384 
	C477.645844,71.796577 482.830078,71.816360 487.984100,72.055061 
	C492.533966,72.265793 494.201813,70.395981 494.061157,65.911415 
	C493.833710,58.658138 494.000000,51.392513 494.000000,44.319092 
	C498.043732,44.319092 501.451172,44.319092 505.000092,44.319092 
	C505.000092,52.120934 505.043182,59.604820 504.978729,67.087784 
	C504.953247,70.049622 506.116547,72.138481 509.184662,71.935043 
	C517.130066,71.408257 525.325562,73.794022 533.000000,70.000000 
	C533.000000,109.687561 533.000000,149.375122 532.669189,189.826324 
	C531.905701,190.114334 531.238708,189.707932 531.074707,189.152924 
	C527.147522,175.861435 523.274292,162.554031 519.376770,149.199738 
	C528.060913,148.743790 529.999878,146.649719 529.999939,137.962860 
	C530.000061,121.464943 530.000488,104.967026 529.999756,88.469109 
	C529.999451,81.342354 527.713013,79.000603 520.750122,79.000397 
	C489.754028,78.999474 458.757965,78.999893 427.761871,79.000084 
	C420.403870,79.000130 418.001221,81.476799 418.000763,89.079361 
	C417.998901,120.242088 417.899109,151.405441 418.090271,182.567001 
	C418.125916,188.381683 419.333344,194.189178 420.000000,200.000000 
	C417.299988,200.000000 414.599976,200.000000 411.449982,199.531433 
	C411.000000,193.730148 410.774780,188.384735 411.074402,183.068909 
	C411.296265,179.131866 410.042358,177.874695 406.012787,177.913422 
	C386.183167,178.103989 366.350739,178.004639 346.519287,177.990387 
	C345.081909,177.989365 343.644684,177.851028 342.285461,177.780594 
	C342.285461,168.027481 342.285461,158.621780 342.285461,149.000015 
	C343.713867,149.000015 344.858002,149.000015 346.002167,149.000015 
	C363.000549,149.000015 379.999847,148.902100 396.996674,149.065170 
	C401.549622,149.108856 403.339325,147.374023 403.043213,142.897644 
	C402.823700,139.579147 402.778687,136.216385 403.049133,132.905472 
	C403.516937,127.177994 401.326385,125.842621 396.298187,125.912537 
	C379.636353,126.144203 362.969238,126.005646 346.304169,125.989876 
	C344.884979,125.988533 343.465912,125.844444 342.361694,125.783936 
	C342.361694,117.538170 342.361694,109.794579 342.361694,101.999992 
	C363.886200,101.999992 385.049683,101.923630 406.211517,102.071953 
	C409.921295,102.097946 411.318054,100.988747 411.061157,97.232620 
	C410.788879,93.251625 410.788635,89.223473 411.054260,85.241570 
	C411.375824,80.421097 409.312225,78.911774 404.635529,78.929947 
	C370.972595,79.060776 337.308899,78.998032 303.645447,79.001839 
	C297.671326,79.002510 296.003357,80.636513 296.002563,86.510841 
	C295.997498,124.340561 296.000000,162.170273 296.000000,200.000000 
	C290.645081,200.000000 285.290131,200.000000 279.180542,199.707703 
	C284.009399,195.526260 287.904846,190.495483 287.956940,183.445267 
	C288.087402,165.788147 287.941925,148.129089 288.043457,130.471588 
	C288.066925,126.389687 286.349335,124.924141 282.372406,124.954033 
	C267.213959,125.067986 252.052032,125.140915 236.896149,124.913414 
	C232.399002,124.845909 231.105865,127.055122 231.020630,130.804016 
	C230.929779,134.800018 230.980713,138.799789 231.005508,142.797699 
	C231.030060,146.754669 232.199310,149.528580 237.007736,149.035416 
	C240.583481,148.668686 242.075211,150.598755 242.022736,154.103622 
	C241.937958,159.766266 241.959106,165.431534 242.015686,171.094879 
	C242.048141,174.342590 240.671707,176.052490 237.305450,176.009628 
	C233.807724,175.965103 230.308578,175.967224 226.810791,176.009338 
	C223.534531,176.048767 221.985474,174.503006 221.988907,171.211273 
	C222.011017,150.054916 221.974915,128.898468 222.023773,107.742203 
	C222.032471,103.978973 224.157059,102.064224 227.911423,102.005585 
	C229.909958,101.974358 231.909470,101.989090 233.908401,102.002022 
	C240.207367,102.042770 242.173843,103.781982 241.908112,110.176643 
	C241.732239,114.408691 243.867905,115.913567 247.384552,115.951141 
	C259.210785,116.077538 271.040344,116.088745 282.866058,115.940575 
	C286.132904,115.899635 288.335907,114.418930 288.066040,110.429825 
	C287.774323,106.118332 288.011627,101.771805 287.997681,97.440620 
	C287.964111,87.030785 279.976776,79.013245 269.573639,79.005760 
	C244.752396,78.987915 219.931091,78.988892 195.109894,79.028679 
	C193.680832,79.030968 192.231400,79.357719 190.827133,79.686127 
	C181.548920,81.855911 175.998520,89.444710 175.999313,99.826004 
	C176.001358,126.479713 176.015976,153.133438 175.988525,179.787125 
	C175.981857,186.266708 177.805527,191.898590 182.768341,196.362595 
	C183.782394,197.274704 184.269821,198.772293 185.000000,200.000000 
	C179.645065,200.000000 174.290146,200.000000 168.149704,199.646454 
	C167.909470,197.121719 168.923874,194.951813 168.929962,192.779099 
	C169.028885,157.482315 169.008896,122.185173 168.991287,86.888130 
	C168.988327,80.976517 166.988327,79.023476 161.008621,79.007111 
	C151.351944,78.980682 141.695145,78.997520 132.038406,79.000801 
	C124.712914,79.003296 123.002411,80.670837 123.001518,87.839027 
	C122.997864,116.975746 122.928040,146.112762 123.045853,175.249008 
	C123.079216,183.500488 123.666664,191.749725 124.000000,200.000000 
	C109.645775,200.000000 95.291542,200.000000 80.165276,199.634552 
	C79.928825,197.284149 80.921509,195.301254 80.930397,193.313950 
	C81.037849,169.314865 81.000000,145.315125 81.000000,121.315559 
	C81.000000,119.568611 81.000000,117.821655 81.000000,115.999962 
	C91.037476,115.999962 100.366951,115.979836 109.696274,116.008888 
	C114.029907,116.022377 116.295677,114.502930 116.090233,109.596809 
	C115.755829,101.610954 116.006538,93.600876 115.997871,85.601028 
	C115.991234,79.477463 115.533630,79.003883 109.498024,79.002907 
	C73.332016,78.997055 37.166008,79.000000 1.000000,79.000000 
	C1.000000,75.307091 1.000000,71.614182 1.379516,67.462891 
	C4.873179,70.533737 8.593926,72.178047 13.485669,72.085182 
	C26.627907,71.835670 39.778042,72.018890 52.924965,71.992668 
	C60.383118,71.977791 64.984543,67.313988 64.994453,59.779896 
	C65.013489,45.301605 64.860260,30.821276 65.067055,16.345915 
	C65.152779,10.345636 63.967152,5.373003 58.124729,2.496404 
	C57.893593,2.382602 58.033161,1.515897 58.000000,1.000000 
	C62.689255,1.000000 67.378510,1.000000 72.837257,1.365445 
	C73.071304,3.048739 72.075645,4.364373 72.069290,5.684771 
	C71.970665,26.177168 72.013168,46.670200 71.986923,67.163040 
	C71.982735,70.436043 73.450829,72.034264 76.763557,72.011139 
	C82.594582,71.970428 88.426308,71.969833 94.257317,72.011284 
	C97.586792,72.034958 99.039627,70.407829 99.013924,67.142067 
	C98.965424,60.977921 98.974144,54.812897 99.029167,48.648861 
	C99.037201,47.749256 99.431236,46.853096 99.892715,44.929993 
	C103.453949,53.424389 106.791855,60.669693 109.482925,68.147766 
	C110.602852,71.259850 112.301460,72.036995 115.126251,72.012634 
	C120.290741,71.968071 125.457542,71.919960 130.620209,72.026741 
	C134.359192,72.104073 136.143860,70.993622 136.092468,66.711761 
	C135.874542,48.554024 136.055145,30.391863 135.954681,12.232070 
	C135.933945,8.486402 135.333328,4.743940 135.000000,1.000000 
	C138.030594,1.000000 141.061188,1.000000 144.849274,1.365444 
	C145.071320,3.048529 144.075455,4.364000 144.069244,5.684134 
	C143.971115,26.507332 144.047150,47.331345 143.950851,68.154556 
	C143.935974,71.371651 145.355011,72.115532 148.204575,72.039124 
	C153.365143,71.900757 158.543030,71.790916 163.693115,72.061272 
	C168.441010,72.310516 170.123276,70.452232 170.074036,65.704803 
	C169.889221,47.881672 170.056030,30.055153 169.954620,12.230678 
	C169.933304,8.485429 169.333328,4.743474 169.000000,1.000000 
	C171.700012,1.000000 174.400024,1.000000 177.853394,1.365412 
	C178.071182,3.380203 177.163544,5.009545 177.073441,6.682913 
	C176.849976,10.832285 177.198746,15.014159 176.940353,19.159460 
	C176.712585,22.813538 177.890091,24.278858 181.708191,24.068707 
	C186.773041,23.789932 191.864807,23.999985 197.000046,23.999985 
	C197.000046,38.687065 197.056503,52.665985 196.962585,66.643898 
	C196.937317,70.403625 198.422348,72.115379 202.236649,72.028984 
	C207.394150,71.912163 212.567337,71.790146 217.713181,72.061401 
	C222.473297,72.312325 224.144989,70.422203 224.073685,65.693153 
	C223.866089,51.926838 224.000000,38.155376 224.000000,23.999765 
	C229.677811,23.999765 234.976532,24.214411 240.235046,23.849422 
	C241.555923,23.757738 243.819214,21.810354 243.822983,20.709534 
	C243.845490,14.140706 243.332962,7.570045 243.000000,1.000000 
	C247.356903,1.000000 251.713806,1.000000 256.823639,1.296275 
	C251.297745,5.723067 250.428162,11.842085 250.931976,18.702747 
	C251.284622,23.505014 250.974243,28.354248 251.006409,33.182198 
	C251.047806,39.395569 255.579086,43.959732 261.772095,43.991249 
	C269.097412,44.028526 276.424164,44.077061 283.748077,43.968384 
	C287.553589,43.911915 289.243317,45.571083 289.014709,49.343719 
	C288.924255,50.836658 289.058746,52.342529 288.985718,53.837379 
	C288.848419,56.647728 287.781830,58.127731 284.503784,58.081741 
	C277.305298,57.980751 277.302734,58.162739 276.747772,50.320911 
	C268.215820,50.320911 259.678467,50.320911 251.000000,50.320911 
	C251.000000,53.958145 250.992249,57.276382 251.001617,60.594566 
	C251.020203,67.167374 255.231339,71.884399 261.694519,71.953163 
	C275.844452,72.103691 289.997864,72.090179 304.148193,71.959656 
	C310.672821,71.899467 314.981110,67.250107 314.996277,60.751949 
	C315.012634,53.759476 315.023010,46.766838 314.992371,39.774460 
	C314.969849,34.636139 312.185059,30.618494 307.239410,30.114908 
	C299.726624,29.349926 292.140381,29.203424 284.580017,29.036697 
	C277.001770,28.869576 276.921997,28.835306 276.963409,21.423283 
	C276.984680,17.616369 278.261749,15.363167 282.388397,14.946535 
	C286.768036,14.504359 288.614868,16.301367 289.160675,20.567471 
	C289.323151,21.837685 291.353790,23.774652 292.615448,23.844950 
	C298.756470,24.187103 304.930328,23.879345 311.085693,24.049799 
	C314.244446,24.137270 315.056580,22.779560 315.051941,19.868790 
	C315.041351,13.184959 315.969604,6.272069 308.813080,2.115532 
	C308.698181,2.048790 308.929993,1.385116 309.000000,1.000000 
z"/>
<path fill="#FFFFFF" opacity="1.000000" stroke="none" 
	d="
M185.468658,200.000000 
	C184.269821,198.772293 183.782394,197.274704 182.768341,196.362595 
	C177.805527,191.898590 175.981857,186.266708 175.988525,179.787125 
	C176.015976,153.133438 176.001358,126.479713 175.999313,99.826004 
	C175.998520,89.444710 181.548920,81.855911 190.827133,79.686127 
	C192.231400,79.357719 193.680832,79.030968 195.109894,79.028679 
	C219.931091,78.988892 244.752396,78.987915 269.573639,79.005760 
	C279.976776,79.013245 287.964111,87.030785 287.997681,97.440620 
	C288.011627,101.771805 287.774323,106.118332 288.066040,110.429825 
	C288.335907,114.418930 286.132904,115.899635 282.866058,115.940575 
	C271.040344,116.088745 259.210785,116.077538 247.384552,115.951141 
	C243.867905,115.913567 241.732239,114.408691 241.908112,110.176643 
	C242.173843,103.781982 240.207367,102.042770 233.908401,102.002022 
	C231.909470,101.989090 229.909958,101.974358 227.911423,102.005585 
	C224.157059,102.064224 222.032471,103.978973 222.023773,107.742203 
	C221.974915,128.898468 222.011017,150.054916 221.988907,171.211273 
	C221.985474,174.503006 223.534531,176.048767 226.810791,176.009338 
	C230.308578,175.967224 233.807724,175.965103 237.305450,176.009628 
	C240.671707,176.052490 242.048141,174.342590 242.015686,171.094879 
	C241.959106,165.431534 241.937958,159.766266 242.022736,154.103622 
	C242.075211,150.598755 240.583481,148.668686 237.007736,149.035416 
	C232.199310,149.528580 231.030060,146.754669 231.005508,142.797699 
	C230.980713,138.799789 230.929779,134.800018 231.020630,130.804016 
	C231.105865,127.055122 232.399002,124.845909 236.896149,124.913414 
	C252.052032,125.140915 267.213959,125.067986 282.372406,124.954033 
	C286.349335,124.924141 288.066925,126.389687 288.043457,130.471588 
	C287.941925,148.129089 288.087402,165.788147 287.956940,183.445267 
	C287.904846,190.495483 284.009399,195.526260 278.712952,199.707703 
	C247.979111,200.000000 216.958206,200.000000 185.468658,200.000000 
z"/>
<path fill="#FFFFFF" opacity="1.000000" stroke="none" 
	d="
M420.468658,200.000000 
	C419.333344,194.189178 418.125916,188.381683 418.090271,182.567001 
	C417.899109,151.405441 417.998901,120.242088 418.000763,89.079361 
	C418.001221,81.476799 420.403870,79.000130 427.761871,79.000084 
	C458.757965,78.999893 489.754028,78.999474 520.750122,79.000397 
	C527.713013,79.000603 529.999451,81.342354 529.999756,88.469109 
	C530.000488,104.967026 530.000061,121.464943 529.999939,137.962860 
	C529.999878,146.649719 528.060913,148.743790 519.376770,149.199738 
	C523.274292,162.554031 527.147522,175.861435 531.074707,189.152924 
	C531.238708,189.707932 531.905701,190.114334 532.669189,190.294983 
	C533.000000,193.304474 533.000000,196.608932 533.000000,200.000000 
	C519.645874,200.000000 506.291595,200.000000 492.762085,199.682037 
	C491.742004,197.980728 490.546356,196.700165 490.106415,195.198212 
	C485.617401,179.873367 481.251251,164.512497 476.873077,149.239624 
	C472.468781,149.239624 468.387115,149.239624 463.000000,149.239624 
	C463.000000,166.317902 463.000000,183.158951 463.000000,200.000000 
	C448.979095,200.000000 434.958221,200.000000 420.468658,200.000000 
M470.030151,100.000893 
	C465.581726,100.676010 463.532715,103.028557 463.930969,107.737793 
	C464.266479,111.704636 464.065399,115.723755 463.982117,119.717232 
	C463.894714,123.908226 465.713409,126.056511 470.037750,126.016266 
	C476.695862,125.954285 483.355225,125.964790 490.013580,126.012474 
	C494.346436,126.043510 496.104218,123.826500 496.018707,119.665970 
	C495.933228,115.506050 496.011749,111.342941 495.996918,107.181313 
	C495.979187,102.207916 493.965363,100.094521 488.919708,100.020676 
	C482.928162,99.932976 476.934357,100.000046 470.030151,100.000893 
z"/>
<path fill="#FFFFFF" opacity="1.000000" stroke="none" 
	d="
M296.468658,200.000000 
	C296.000000,162.170273 295.997498,124.340561 296.002563,86.510841 
	C296.003357,80.636513 297.671326,79.002510 303.645447,79.001839 
	C337.308899,78.998032 370.972595,79.060776 404.635529,78.929947 
	C409.312225,78.911774 411.375824,80.421097 411.054260,85.241570 
	C410.788635,89.223473 410.788879,93.251625 411.061157,97.232620 
	C411.318054,100.988747 409.921295,102.097946 406.211517,102.071953 
	C385.049683,101.923630 363.886200,101.999992 342.361694,101.999992 
	C342.361694,109.794579 342.361694,117.538170 342.361694,125.783936 
	C343.465912,125.844444 344.884979,125.988533 346.304169,125.989876 
	C362.969238,126.005646 379.636353,126.144203 396.298187,125.912537 
	C401.326385,125.842621 403.516937,127.177994 403.049133,132.905472 
	C402.778687,136.216385 402.823700,139.579147 403.043213,142.897644 
	C403.339325,147.374023 401.549622,149.108856 396.996674,149.065170 
	C379.999847,148.902100 363.000549,149.000015 346.002167,149.000015 
	C344.858002,149.000015 343.713867,149.000015 342.285461,149.000015 
	C342.285461,158.621780 342.285461,168.027481 342.285461,177.780594 
	C343.644684,177.851028 345.081909,177.989365 346.519287,177.990387 
	C366.350739,178.004639 386.183167,178.103989 406.012787,177.913422 
	C410.042358,177.874695 411.296265,179.131866 411.074402,183.068909 
	C410.774780,188.384735 411.000000,193.730148 411.000000,199.531433 
	C372.979095,200.000000 334.958221,200.000000 296.468658,200.000000 
z"/>
<path fill="#FFFFFF" opacity="1.000000" stroke="none" 
	d="
M1.000000,79.468658 
	C37.166008,79.000000 73.332016,78.997055 109.498024,79.002907 
	C115.533630,79.003883 115.991234,79.477463 115.997871,85.601028 
	C116.006538,93.600876 115.755829,101.610954 116.090233,109.596809 
	C116.295677,114.502930 114.029907,116.022377 109.696274,116.008888 
	C100.366951,115.979836 91.037476,115.999962 81.000000,115.999962 
	C81.000000,117.821655 81.000000,119.568611 81.000000,121.315559 
	C81.000000,145.315125 81.037849,169.314865 80.930397,193.313950 
	C80.921509,195.301254 79.928825,197.284149 79.696617,199.634552 
	C65.645775,200.000000 51.291546,200.000000 36.786552,199.646454 
	C36.090527,196.961838 35.082901,194.633026 35.071415,192.299316 
	C34.954563,168.554092 35.000000,144.808044 35.000000,121.062233 
	C35.000000,119.462868 35.000000,117.863503 35.000000,116.505287 
	C23.312847,115.987862 12.156424,115.493927 1.000000,115.000000 
	C1.000000,103.312439 1.000000,91.624878 1.000000,79.468658 
z"/>
<path fill="#FFFFFF" opacity="1.000000" stroke="none" 
	d="
M124.468658,200.000000 
	C123.666664,191.749725 123.079216,183.500488 123.045853,175.249008 
	C122.928040,146.112762 122.997864,116.975746 123.001518,87.839027 
	C123.002411,80.670837 124.712914,79.003296 132.038406,79.000801 
	C141.695145,78.997520 151.351944,78.980682 161.008621,79.007111 
	C166.988327,79.023476 168.988327,80.976517 168.991287,86.888130 
	C169.008896,122.185173 169.028885,157.482315 168.929962,192.779099 
	C168.923874,194.951813 167.909470,197.121719 167.682098,199.646454 
	C153.645767,200.000000 139.291550,200.000000 124.468658,200.000000 
z"/>
<path fill="#FFFFFF" opacity="1.000000" stroke="none" 
	d="
M134.531372,1.000000 
	C135.333328,4.743940 135.933945,8.486402 135.954681,12.232070 
	C136.055145,30.391863 135.874542,48.554024 136.092468,66.711761 
	C136.143860,70.993622 134.359192,72.104073 130.620209,72.026741 
	C125.457542,71.919960 120.290741,71.968071 115.126251,72.012634 
	C112.301460,72.036995 110.602852,71.259850 109.482925,68.147766 
	C106.791855,60.669693 103.453949,53.424389 99.892715,44.929993 
	C99.431236,46.853096 99.037201,47.749256 99.029167,48.648861 
	C98.974144,54.812897 98.965424,60.977921 99.013924,67.142067 
	C99.039627,70.407829 97.586792,72.034958 94.257317,72.011284 
	C88.426308,71.969833 82.594582,71.970428 76.763557,72.011139 
	C73.450829,72.034264 71.982735,70.436043 71.986923,67.163040 
	C72.013168,46.670200 71.970665,26.177168 72.069290,5.684771 
	C72.075645,4.364373 73.071304,3.048739 73.303375,1.365445 
	C80.687576,1.000000 88.375153,1.000000 96.241989,1.300447 
	C97.618805,3.679932 99.035095,5.665236 99.973587,7.855289 
	C102.990822,14.896300 105.831688,22.012896 108.740570,29.100340 
	C108.988716,29.017910 109.236855,28.935478 109.485001,28.853048 
	C109.989998,19.568699 110.495003,10.284349 111.000000,1.000000 
	C118.687584,1.000000 126.375160,1.000000 134.531372,1.000000 
z"/>
<path fill="#FFFFFF" opacity="1.000000" stroke="none" 
	d="
M533.000000,69.531342 
	C525.325562,73.794022 517.130066,71.408257 509.184662,71.935043 
	C506.116547,72.138481 504.953247,70.049622 504.978729,67.087784 
	C505.043182,59.604820 505.000092,52.120934 505.000092,44.319092 
	C501.451172,44.319092 498.043732,44.319092 494.000000,44.319092 
	C494.000000,51.392513 493.833710,58.658138 494.061157,65.911415 
	C494.201813,70.395981 492.533966,72.265793 487.984100,72.055061 
	C482.830078,71.816360 477.645844,71.796577 472.494781,72.065384 
	C468.491516,72.274300 467.075714,70.040672 467.054657,66.790451 
	C466.941223,49.296505 466.904846,31.800602 467.057190,14.307248 
	C467.105133,8.805962 469.818481,4.501046 474.287567,1.296316 
	C490.687561,1.000000 507.375122,1.000000 524.244019,1.293952 
	C526.786194,4.371746 529.125000,7.175080 531.543701,9.907696 
	C531.772217,10.165865 532.502625,9.979807 533.000000,10.000000 
	C533.000000,29.687561 533.000000,49.375122 533.000000,69.531342 
M498.592865,16.000011 
	C493.381042,16.442877 492.786194,18.312120 494.532013,28.731728 
	C497.949646,28.731728 501.357971,28.731728 505.000000,28.731728 
	C505.000000,26.161572 504.770020,23.824759 505.049133,21.550419 
	C505.587708,17.161791 503.930664,15.271606 498.592865,16.000011 
z"/>
<path fill="#FFFFFF" opacity="1.000000" stroke="none" 
	d="
M57.531342,1.000000 
	C58.033161,1.515897 57.893593,2.382602 58.124729,2.496404 
	C63.967152,5.373003 65.152779,10.345636 65.067055,16.345915 
	C64.860260,30.821276 65.013489,45.301605 64.994453,59.779896 
	C64.984543,67.313988 60.383118,71.977791 52.924965,71.992668 
	C39.778042,72.018890 26.627907,71.835670 13.485669,72.085182 
	C8.593926,72.178047 4.873179,70.533737 1.379516,67.002258 
	C1.000000,46.979103 1.000000,26.958210 1.367511,6.467100 
	C3.490015,4.331257 5.245008,2.665628 7.000000,1.000000 
	C23.687561,1.000000 40.375122,1.000000 57.531342,1.000000 
M35.224400,16.002491 
	C33.560341,16.002083 31.732718,15.573584 30.280771,16.128334 
	C28.973484,16.627815 27.164583,18.186943 27.142027,19.310129 
	C26.911539,30.787497 26.926348,42.272003 27.037077,53.752930 
	C27.082079,58.418896 30.667871,57.855972 33.839813,58.051041 
	C37.233761,58.259758 38.090107,56.763611 38.052296,53.622929 
	C37.918095,42.475357 38.064808,31.324333 37.917561,20.177094 
	C37.899220,18.788418 36.756920,17.414589 35.224400,16.002491 
z"/>
<path fill="#FFFFFF" opacity="1.000000" stroke="none" 
	d="
M384.531372,1.000000 
	C385.666656,6.100509 386.810913,11.191921 386.908264,16.303274 
	C387.174591,30.283617 386.872528,44.273941 387.046356,58.257198 
	C387.155975,67.074821 382.075531,72.386696 373.425507,72.108513 
	C360.452454,71.691299 347.455444,71.923904 334.469818,72.027634 
	C326.266235,72.093170 322.129272,67.038948 322.055847,59.653202 
	C321.882080,42.173161 321.922638,24.689375 322.113525,7.209689 
	C322.133759,5.355909 323.726929,3.519313 324.295197,1.337374 
	C331.687592,1.000000 339.375153,1.000000 347.227997,1.365451 
	C347.928833,3.545357 348.914185,5.356102 348.929169,7.174854 
	C349.054047,22.310877 349.065369,37.448845 348.957031,52.585121 
	C348.927582,56.699524 350.741302,58.115517 354.671906,58.060936 
	C358.447906,58.008511 360.081177,56.891712 360.102570,52.674988 
	C360.189911,35.448917 360.666656,18.224823 361.000000,1.000000 
	C368.687592,1.000000 376.375153,1.000000 384.531372,1.000000 
z"/>
<path fill="#FFFFFF" opacity="1.000000" stroke="none" 
	d="
M308.531342,1.000000 
	C308.929993,1.385116 308.698181,2.048790 308.813080,2.115532 
	C315.969604,6.272069 315.041351,13.184959 315.051941,19.868790 
	C315.056580,22.779560 314.244446,24.137270 311.085693,24.049799 
	C304.930328,23.879345 298.756470,24.187103 292.615448,23.844950 
	C291.353790,23.774652 289.323151,21.837685 289.160675,20.567471 
	C288.614868,16.301367 286.768036,14.504359 282.388397,14.946535 
	C278.261749,15.363167 276.984680,17.616369 276.963409,21.423283 
	C276.921997,28.835306 277.001770,28.869576 284.580017,29.036697 
	C292.140381,29.203424 299.726624,29.349926 307.239410,30.114908 
	C312.185059,30.618494 314.969849,34.636139 314.992371,39.774460 
	C315.023010,46.766838 315.012634,53.759476 314.996277,60.751949 
	C314.981110,67.250107 310.672821,71.899467 304.148193,71.959656 
	C289.997864,72.090179 275.844452,72.103691 261.694519,71.953163 
	C255.231339,71.884399 251.020203,67.167374 251.001617,60.594566 
	C250.992249,57.276382 251.000000,53.958145 251.000000,50.320911 
	C259.678467,50.320911 268.215820,50.320911 276.747772,50.320911 
	C277.302734,58.162739 277.305298,57.980751 284.503784,58.081741 
	C287.781830,58.127731 288.848419,56.647728 288.985718,53.837379 
	C289.058746,52.342529 288.924255,50.836658 289.014709,49.343719 
	C289.243317,45.571083 287.553589,43.911915 283.748077,43.968384 
	C276.424164,44.077061 269.097412,44.028526 261.772095,43.991249 
	C255.579086,43.959732 251.047806,39.395569 251.006409,33.182198 
	C250.974243,28.354248 251.284622,23.505014 250.931976,18.702747 
	C250.428162,11.842085 251.297745,5.723067 257.288269,1.296275 
	C274.020905,1.000000 291.041779,1.000000 308.531342,1.000000 
z"/>
<path fill="#FFFFFF" opacity="1.000000" stroke="none" 
	d="
M459.531372,0.999999 
	C458.906281,3.260818 458.168732,5.801425 456.653076,7.730789 
	C451.821747,13.880846 446.538849,19.680845 441.822388,25.912756 
	C440.819153,27.238373 440.722046,30.177004 441.481812,31.761402 
	C447.040131,43.352543 452.956482,54.771488 458.666290,66.291145 
	C459.467773,67.908112 459.759888,69.777565 460.429138,71.999405 
	C453.150116,71.999405 446.642365,72.378693 440.222839,71.792252 
	C437.996613,71.588890 435.288696,69.428543 434.021118,67.399620 
	C430.963989,62.506283 428.703522,57.121525 425.943115,52.031822 
	C425.295471,50.837624 423.939545,50.027554 422.909485,49.040775 
	C422.273254,50.426170 421.178192,51.782524 421.088348,53.202473 
	C420.836700,57.179886 421.027679,61.183804 420.993561,65.176842 
	C420.943115,71.082245 420.011353,71.993271 414.139862,71.999069 
	C409.480988,72.003670 404.812653,71.815170 400.165985,72.053314 
	C395.746216,72.279831 393.905243,70.660393 393.938507,66.077095 
	C394.082214,46.277908 393.961884,26.476873 394.069611,6.677227 
	C394.078613,5.025715 395.071167,3.379553 395.303375,1.365452 
	C402.687592,1.000000 410.375153,1.000000 418.236176,1.337100 
	C419.273071,4.019754 420.580627,6.308040 420.892273,8.724757 
	C421.322021,12.057411 421.000000,15.487015 421.000000,20.252367 
	C423.647980,17.270647 425.436707,15.503042 426.935913,13.516883 
	C430.038818,9.406153 432.987762,5.179177 436.000000,1.000000 
	C443.687592,1.000000 451.375153,1.000000 459.531372,0.999999 
z"/>
<path fill="#000000" opacity="1.000000" stroke="none" 
	d="
M1.000000,115.468658 
	C12.156424,115.493927 23.312847,115.987862 35.000000,116.505287 
	C35.000000,117.863503 35.000000,119.462868 35.000000,121.062233 
	C35.000000,144.808044 34.954563,168.554092 35.071415,192.299316 
	C35.082901,194.633026 36.090527,196.961838 36.317894,199.646454 
	C24.376028,200.000000 12.752056,200.000000 1.000000,200.000000 
	C1.000000,171.979218 1.000000,143.958267 1.000000,115.468658 
z"/>
<path fill="#FFFFFF" opacity="1.000000" stroke="none" 
	d="
M242.531342,1.000000 
	C243.332962,7.570045 243.845490,14.140706 243.822983,20.709534 
	C243.819214,21.810354 241.555923,23.757738 240.235046,23.849422 
	C234.976532,24.214411 229.677811,23.999765 224.000000,23.999765 
	C224.000000,38.155376 223.866089,51.926838 224.073685,65.693153 
	C224.144989,70.422203 222.473297,72.312325 217.713181,72.061401 
	C212.567337,71.790146 207.394150,71.912163 202.236649,72.028984 
	C198.422348,72.115379 196.937317,70.403625 196.962585,66.643898 
	C197.056503,52.665985 197.000046,38.687065 197.000046,23.999985 
	C191.864807,23.999985 186.773041,23.789932 181.708191,24.068707 
	C177.890091,24.278858 176.712585,22.813538 176.940353,19.159460 
	C177.198746,15.014159 176.849976,10.832285 177.073441,6.682913 
	C177.163544,5.009545 178.071182,3.380203 178.303375,1.365412 
	C199.354233,1.000000 220.708450,1.000000 242.531342,1.000000 
z"/>
<path fill="#FFFFFF" opacity="1.000000" stroke="none" 
	d="
M168.531372,1.000000 
	C169.333328,4.743474 169.933304,8.485429 169.954620,12.230678 
	C170.056030,30.055153 169.889221,47.881672 170.074036,65.704803 
	C170.123276,70.452232 168.441010,72.310516 163.693115,72.061272 
	C158.543030,71.790916 153.365143,71.900757 148.204575,72.039124 
	C145.355011,72.115532 143.935974,71.371651 143.950851,68.154556 
	C144.047150,47.331345 143.971115,26.507332 144.069244,5.684134 
	C144.075455,4.364000 145.071320,3.048529 145.303391,1.365444 
	C152.687576,1.000000 160.375168,1.000000 168.531372,1.000000 
z"/>
<path fill="#000000" opacity="1.000000" stroke="none" 
	d="
M463.468658,200.000000 
	C463.000000,183.158951 463.000000,166.317902 463.000000,149.239624 
	C468.387115,149.239624 472.468781,149.239624 476.873077,149.239624 
	C481.251251,164.512497 485.617401,179.873367 490.106415,195.198212 
	C490.546356,196.700165 491.742004,197.980728 492.293457,199.682037 
	C482.645782,200.000000 473.291534,200.000000 463.468658,200.000000 
z"/>
<path fill="#000000" opacity="1.000000" stroke="none" 
	d="
M360.536804,1.000000 
	C360.666656,18.224823 360.189911,35.448917 360.102570,52.674988 
	C360.081177,56.891712 358.447906,58.008511 354.671906,58.060936 
	C350.741302,58.115517 348.927582,56.699524 348.957031,52.585121 
	C349.065369,37.448845 349.054047,22.310877 348.929169,7.174854 
	C348.914185,5.356102 347.928833,3.545357 347.696625,1.365451 
	C352.024536,1.000000 356.049103,1.000000 360.536804,1.000000 
z"/>
<path fill="#000000" opacity="1.000000" stroke="none" 
	d="
M110.535355,1.000000 
	C110.495003,10.284349 109.989998,19.568699 109.485001,28.853048 
	C109.236855,28.935478 108.988716,29.017910 108.740570,29.100340 
	C105.831688,22.012896 102.990822,14.896300 99.973587,7.855289 
	C99.035095,5.665236 97.618805,3.679932 96.710632,1.300447 
	C101.356903,1.000000 105.713799,1.000000 110.535355,1.000000 
z"/>
<path fill="#000000" opacity="1.000000" stroke="none" 
	d="
M435.532410,1.000000 
	C432.987762,5.179177 430.038818,9.406153 426.935913,13.516883 
	C425.436707,15.503042 423.647980,17.270647 421.000000,20.252367 
	C421.000000,15.487015 421.322021,12.057411 420.892273,8.724757 
	C420.580627,6.308040 419.273071,4.019754 418.704803,1.337100 
	C424.354919,1.000000 429.709869,1.000000 435.532410,1.000000 
z"/>
<path fill="#000000" opacity="1.000000" stroke="none" 
	d="
M533.000000,9.508952 
	C532.502625,9.979807 531.772217,10.165865 531.543701,9.907696 
	C529.125000,7.175080 526.786194,4.371746 524.712646,1.293952 
	C527.588745,1.000000 530.177490,1.000000 533.000000,1.000000 
	C533.000000,3.670323 533.000000,6.344113 533.000000,9.508952 
z"/>
<path fill="#000000" opacity="1.000000" stroke="none" 
	d="
M6.500528,1.000000 
	C5.245008,2.665628 3.490015,4.331257 1.367511,5.998443 
	C1.000000,4.412531 1.000000,2.825062 1.000000,1.000000 
	C2.664128,1.000000 4.332592,1.000000 6.500528,1.000000 
z"/>
<path fill="#000000" opacity="1.000000" stroke="none" 
	d="
M470.485840,100.000473 
	C476.934357,100.000046 482.928162,99.932976 488.919708,100.020676 
	C493.965363,100.094521 495.979187,102.207916 495.996918,107.181313 
	C496.011749,111.342941 495.933228,115.506050 496.018707,119.665970 
	C496.104218,123.826500 494.346436,126.043510 490.013580,126.012474 
	C483.355225,125.964790 476.695862,125.954285 470.037750,126.016266 
	C465.713409,126.056511 463.894714,123.908226 463.982117,119.717232 
	C464.065399,115.723755 464.266479,111.704636 463.930969,107.737793 
	C463.532715,103.028557 465.581726,100.676010 470.485840,100.000473 
z"/>
<path fill="#000000" opacity="1.000000" stroke="none" 
	d="
M499.046448,16.000006 
	C503.930664,15.271606 505.587708,17.161791 505.049133,21.550419 
	C504.770020,23.824759 505.000000,26.161572 505.000000,28.731728 
	C501.357971,28.731728 497.949646,28.731728 494.532013,28.731728 
	C492.786194,18.312120 493.381042,16.442877 499.046448,16.000006 
z"/>
<path fill="#000000" opacity="1.000000" stroke="none" 
	d="
M35.679909,16.018185 
	C36.756920,17.414589 37.899220,18.788418 37.917561,20.177094 
	C38.064808,31.324333 37.918095,42.475357 38.052296,53.622929 
	C38.090107,56.763611 37.233761,58.259758 33.839813,58.051041 
	C30.667871,57.855972 27.082079,58.418896 27.037077,53.752930 
	C26.926348,42.272003 26.911539,30.787497 27.142027,19.310129 
	C27.164583,18.186943 28.973484,16.627815 30.280771,16.128334 
	C31.732718,15.573584 33.560341,16.002083 35.679909,16.018185 
z"/>
</svg>