<?xml version="1.0" encoding="utf-8"?>
<!-- Generator: Adobe Illustrator 28.4.1, SVG Export Plug-In . SVG Version: 6.00 Build 0)  -->
<svg version="1.1" id="Layer_1" xmlns="http://www.w3.org/2000/svg" xmlns:xlink="http://www.w3.org/1999/xlink" x="0px" y="0px"
	 viewBox="0 0 75.5 47.5" style="enable-background:new 0 0 75.5 47.5;" xml:space="preserve">
<style type="text/css">
	.st0{fill:#EFEFEF;}
</style>
<path class="st0" d="M17.1,26.5c0,0-0.2,5.6-2.5,6.7c0,0-2.6-1.4,0-6.3L17.1,26.5z M46.8,25.1c-0.5,1.2-0.2,1.6-0.2,1.6
	c0.6,0,1.1-0.2,1.7-0.3c0.3-0.6,0.3-1.3,0.2-1.9C48.2,23.4,47.3,23.8,46.8,25.1z M35.3,33.5c0.5,0.7,1.5,0.9,2.3,0.5
	c1.1-0.8-0.2-2.2-0.2-2.2L35.3,33.5z M75.5,13.6v23.7c0,3.3-2.6,5.9-5.9,5.9H46c0,0-2.8-0.2-8.4,4.2c-5.7-4.5-8.5-4.2-8.5-4.2h-23
	c-3.3,0-5.9-2.6-5.9-5.9c0,0,0,0,0,0V13.6L75.5,13.6z M22.1,34.8L24.5,23c2.1-0.6,3.7-2.2,4.4-4.3c-2.8,0.7-5.6,1.2-8.5,1.3
	c-4.4,0.2-7.9,0.7-8.7,4.9c1.5-0.7,3.2-1.1,4.9-1.2c2.6-0.1,5.4-0.3,6.7-0.4l-2.6,12c-1.6,0.3-3.3,0-4.6-0.9c0,0,3.9-2,4.5-4.1
	s1.2-5.5,1.2-5.5l-6.6,1.2c0.2-0.4,0.4-0.7,0.6-1c-2.2,0.7-4,2.4-4.9,4.6c-1.2,3.4,0.7,7.1,4.1,8.3c0,0,0.1,0,0.1,0
	c2.5,0.9,6.3,0.6,9.5-3.5C23.7,34.5,22.9,34.7,22.1,34.8z M31.1,33.5c0,0-1.6,0.6-1.4-0.3s0.6-3.1,0.8-4.1c0.2-0.8-0.2-1.5-1-1.8
	c-0.1,0-0.1,0-0.2,0c-0.9-0.1-1.1,0.2-1.6,0.9c-0.2,0.4-0.9,0.6-0.7,0.8c0,0,0.4,0.4,0.2,1.5s-0.6,3.3-0.7,3.9s0.1,2.1,2.1,1.3
	C29.8,35.3,30.6,34.5,31.1,33.5z M32,24.3c-0.9-0.5-2.2-1.1-2.2-1.1c-0.8,0.4-1.5,1-2.1,1.6c0.5,0.2,2,1.1,2,1.1L32,24.3z
	 M41.3,25.5c-0.9,0.2-1.8,0.1-2.7-0.2c-0.2-0.1-0.5-0.1-0.8,0c-0.4,0.2-3,1.2-4,3.2c-0.9,1.8-0.5,4,1,5.4L32.6,36
	c0,0,1.3,1.8,4.6,0.8s2.9-4.4,3-5.1c0.3-1.7,0.8-3.4,1.4-5.1C42,25.6,41.9,25.5,41.3,25.5L41.3,25.5z M50.5,23
	c-1.6-0.6-3.4-0.4-4.7,0.7c-2.2,1.5-2.3,4.3-2.2,5.8s1.3,2.7,3.5,2c1.3-0.4,2.4-1.2,3-2.4c-2,0.9-2.9,1-3.6,0.5s-0.1-1.8-0.1-1.8
	l5-1.1C52.1,23.9,51,23.3,50.5,23z M65.2,20.9c0,0-0.8-0.1-1.7-0.1c-0.7,0-1.4-0.1-2.1-0.3c-0.6-0.2-0.7-0.4-1-0.1
	c-0.9,0.7-1.9,1.3-2.9,1.8c-0.6-0.6-1.4-0.9-2.2-0.9c-0.3,0.3-0.6,0.6-1,0.9c-0.3,0.1-0.4,0.4-0.5,0.7c0,0,0.5,0.3,0.2,1.2
	s-0.6,2.6-0.7,3.4c-0.3,0.9,0.2,1.9,1.1,2.2c0,0,0,0,0,0c1.2,0.4,3-0.1,5.4-3.3c-0.6,0.2-1.2,0.4-1.9,0.5c-0.4,0-1-0.1-0.9-0.8
	s0.5-2.4,0.5-2.4s0-0.4,0.5-0.8s0.9-0.8,1.7-0.5s2.4,0.9,3.2,0.4S65,21.4,65.2,20.9L65.2,20.9z M38.5,27.7c-0.3,0-1.1-0.4-1.5-0.1
	c-0.4,0.4-0.8,0.8-1,1.4c-0.4,0.9,0,1.9,0.8,2.4c0.7,0.3,0.5-0.8,0.7-1.4c0.2-0.6,0.6-1.2,1.1-1.6C39,28,38.8,27.7,38.5,27.7z
	 M38.1,9.1l1.1,0.4c1,0.3,1.2,0.5,1.2,0.8s-0.3,0.4-0.7,0.4c-0.7,0-1.3-0.3-1.8-0.9h-1.7v2.5h1.9v-0.9c0.7,0.7,1.6,1.1,2.6,1.1
	c1.9,0,3.2-1.1,3.2-2.7c0-1.2-0.8-2.2-2-2.5l-2-0.7c-0.2-0.1-0.4-0.2-0.4-0.4c0-0.3,0.3-0.4,0.8-0.4c0.5,0,1,0.3,1.2,0.8h1.9V4h-1.8
	v0.9c-0.6-0.7-1.6-1.1-2.5-1c-1.6-0.1-2.9,1.1-3,2.6c0,0,0,0.1,0,0.1C36.2,7.8,37,8.8,38.1,9.1z M44.8,6.5v3.6
	c-0.1,1.3,0.9,2.4,2.2,2.5c0.1,0,0.2,0,0.3,0c1.3,0,2.4-0.8,2.9-1.9v1.8h4v-1.8c-0.3,0-0.6-0.2-0.6-0.5c0,0,0-0.1,0-0.1V4h-4.3v1.8
	c0.4-0.1,0.7,0.2,0.8,0.6c0,0.1,0,0.1,0,0.2V9c0,0.5-0.4,0.9-0.9,0.9c-0.5,0-0.9-0.4-0.9-0.9V4h-4.3v1.8c0.4-0.1,0.7,0.2,0.8,0.6
	C44.8,6.4,44.8,6.5,44.8,6.5z M59.9,10.6c-0.3,0-0.6-0.2-0.6-0.5c0,0,0-0.1,0-0.1V8.7l2.6,3.7h3.2v-1.8c-0.3-0.1-0.6-0.3-0.8-0.5
	l-1.8-2.4l1.1-1.1c0.3-0.4,0.8-0.7,1.3-0.9V4h-4.7v1.8h1.4L59.3,8V0.1h-4.2v1.8c0.3,0,0.6,0.2,0.6,0.5c0,0,0,0.1,0,0.1V10
	c0,0.3-0.2,0.6-0.5,0.6c0,0-0.1,0-0.1,0v1.8h4.8L59.9,10.6z M65.5,9.9c0-1.6,1.5-2.7,3.4-2.7c0.8,0,1.6,0.2,2.2,0.6V7.4
	C71.1,6.5,70.2,6,69,6c-0.8,0-1.6,0.2-2.3,0.5l-0.5-1.9c1.2-0.5,2.5-0.7,3.8-0.7c2.8,0,4.7,1.4,4.7,3.6v2.4
	c-0.1,0.4,0.2,0.7,0.6,0.8c0.1,0,0.1,0,0.2,0v1.8h-3.5v-1.5c-0.4,1.1-1.3,1.7-3,1.7C66.9,12.6,65.5,11.5,65.5,9.9z M69.1,9.7
	c0,0.4,0.3,0.8,0.7,0.8c0,0,0,0,0.1,0h0.5c0.4,0,0.8-0.4,0.8-0.8s-0.4-0.8-0.8-0.8h-0.5C69.5,8.9,69.1,9.2,69.1,9.7
	C69.1,9.7,69.1,9.7,69.1,9.7z M29.6,10.6c-0.4,0.1-0.7-0.2-0.8-0.6c0-0.1,0-0.1,0-0.2V4h-4.3v1.8c0.4-0.1,0.7,0.2,0.8,0.6
	c0,0.1,0,0.1,0,0.2v3.3c0,0.4-0.2,0.7-0.6,0.8c-0.1,0-0.1,0-0.2,0v1.8h5L29.6,10.6z M0,6.4C-0.1,3,2.5,0.1,5.9,0C6,0,6.2,0,6.3,0
	c3.4-0.1,6.2,2.6,6.3,6c0,0.1,0,0.3,0,0.4c0.2,3.4-2.5,6.2-5.8,6.4c-0.2,0-0.3,0-0.5,0C2.9,12.8,0.1,10.2,0,6.8C0,6.7,0,6.5,0,6.4z
	 M5,9.1c0,0.7,0.5,1.2,1.1,1.3c0,0,0.1,0,0.1,0c0.6,0.1,1.2-0.4,1.3-1.1c0-0.1,0-0.1,0-0.2V3.7c0-0.7-0.5-1.2-1.1-1.3
	c0,0-0.1,0-0.1,0C5.6,2.4,5.1,2.8,5,3.5c0,0.1,0,0.1,0,0.2V9.1z M18.5,10.6c-0.4,0.1-0.7-0.2-0.8-0.6c0-0.1,0-0.1,0-0.2V7.4
	c0-0.5,0.4-0.9,0.9-0.9c0.5,0,0.9,0.4,0.9,0.9v5h4.3v-1.8c-0.4,0.1-0.7-0.2-0.8-0.6c0-0.1,0-0.1,0-0.2V6.3c0.1-1.3-0.9-2.4-2.2-2.5
	c-0.1,0-0.2,0-0.3,0c-1.3,0-2.4,0.8-2.8,1.9V4h-4.1v1.8c0.4-0.1,0.7,0.2,0.8,0.6c0,0.1,0,0.1,0,0.2v3.3c0,0.4-0.2,0.7-0.6,0.8
	c-0.1,0-0.1,0-0.2,0v1.8h5V10.6z M30.6,12.4h5v-1.8h-0.2c-0.9,0-1.3-0.4-1.3-1.3V5.9h1.5V4h-1.5V1.2h-3.4v1.7c0,0.8-0.4,1.1-1.1,1.1
	v1.8h1L30.6,12.4z M28.8,0.4h-3.5v2.8h3.5V0.4z"/>
</svg>
