<?xml version="1.0" encoding="utf-8"?>
<!-- Generator: Adobe Illustrator 28.4.1, SVG Export Plug-In . SVG Version: 6.00 Build 0)  -->
<svg version="1.1" id="Layer_1" xmlns="http://www.w3.org/2000/svg" xmlns:xlink="http://www.w3.org/1999/xlink" x="0px" y="0px"
	 viewBox="0 0 549.9 199" style="enable-background:new 0 0 549.9 199;" xml:space="preserve">
<style type="text/css">
	.st0{fill:#FFFFFF;}
</style>
<path class="st0" d="M318,1c4.7,0,9.4,0,14.8,0.3c-0.1,2.2-1.7,4-1.7,5.9c-0.2,17.5-0.2,35-0.1,52.4c0.1,7.4,4.2,12.4,12.4,12.4
	c13-0.1,26-0.3,39,0.1c8.7,0.3,13.7-5,13.6-13.9c-0.2-14,0.1-28-0.1-42c-0.1-5.1-1.2-10.2-1.9-15.3c3,0,6.1,0,9.8,0.4
	c0.2,2-0.8,3.7-0.8,5.3c-0.1,19.8,0,39.6-0.1,59.4c0,4.6,1.8,6.2,6.2,6c4.6-0.2,9.3,0,14-0.1c5.9,0,6.8-0.9,6.9-6.8
	c0-4-0.2-8,0.1-12c0.1-1.4,1.2-2.8,1.8-4.2c1,1,2.4,1.8,3,3c2.8,5.1,5,10.5,8.1,15.4c1.3,2,4,4.2,6.2,4.4c6.4,0.6,12.9,0.2,20.2,0.2
	c-0.7-2.2-1-4.1-1.8-5.7c-5.7-11.5-11.6-22.9-17.2-34.5c-0.8-1.6-0.7-4.5,0.3-5.8c4.7-6.2,10-12,14.8-18.2c1.5-1.9,2.3-4.5,3.3-6.7
	c4.4,0,8.7,0,13.8,0.3c-4,3.2-6.7,7.5-6.8,13c-0.2,17.5-0.1,35,0,52.5c0,3.3,1.4,5.5,5.4,5.3c5.2-0.3,10.3-0.2,15.5,0
	c4.5,0.2,6.2-1.7,6.1-6.1c-0.2-7.3-0.1-14.5-0.1-21.6c4,0,7.5,0,11,0c0,7.8,0,15.3,0,22.8c0,3,1.1,5.1,4.2,4.8
	c7.9-0.5,16.1,1.9,23.8-1.9c0,39.7,0,79.4-0.3,119.8c-0.8,0.3-1.4-0.1-1.6-0.7c-3.9-13.3-7.8-26.6-11.7-40
	c8.7-0.5,10.6-2.6,10.6-11.2c0-16.5,0-33,0-49.5c0-7.1-2.3-9.5-9.2-9.5c-31,0-62,0-93,0c-7.4,0-9.8,2.5-9.8,10.1
	c0,31.2-0.1,62.3,0.1,93.5c0,5.8,1.2,11.6,1.9,17.4c-2.7,0-5.4,0-8.6-0.5c-0.4-5.8-0.7-11.1-0.4-16.5c0.2-3.9-1-5.2-5.1-5.2
	c-19.8,0.2-39.7,0.1-59.5,0.1c-1.4,0-2.9-0.1-4.2-0.2c0-9.8,0-19.2,0-28.8c1.4,0,2.6,0,3.7,0c17,0,34-0.1,51,0.1
	c4.6,0,6.3-1.7,6-6.2c-0.2-3.3-0.3-6.7,0-10c0.5-5.7-1.7-7.1-6.8-7c-16.7,0.2-33.3,0.1-50,0.1c-1.4,0-2.8-0.1-3.9-0.2
	c0-8.2,0-16,0-23.8c21.5,0,42.7-0.1,63.8,0.1c3.7,0,5.1-1.1,4.8-4.8c-0.3-4-0.3-8,0-12c0.3-4.8-1.7-6.3-6.4-6.3
	c-33.7,0.1-67.3,0.1-101,0.1c-6,0-7.6,1.6-7.6,7.5c0,37.8,0,75.7,0,113.5c-5.4,0-10.7,0-16.8-0.3c4.8-4.2,8.7-9.2,8.8-16.3
	c0.1-17.7,0-35.3,0.1-53c0-4.1-1.7-5.5-5.7-5.5c-15.2,0.1-30.3,0.2-45.5,0c-4.5-0.1-5.8,2.1-5.9,5.9c-0.1,4,0,8,0,12
	c0,4,1.2,6.7,6,6.2c3.6-0.4,5.1,1.6,5,5.1c-0.1,5.7-0.1,11.3,0,17c0,3.2-1.3,5-4.7,4.9c-3.5,0-7,0-10.5,0c-3.3,0-4.8-1.5-4.8-4.8
	c0-21.2,0-42.3,0-63.5c0-3.8,2.1-5.7,5.9-5.7c2,0,4,0,6,0c6.3,0,8.3,1.8,8,8.2c-0.2,4.2,2,5.7,5.5,5.8c11.8,0.1,23.7,0.1,35.5,0
	c3.3,0,5.5-1.5,5.2-5.5c-0.3-4.3-0.1-8.7-0.1-13c0-10.4-8-18.4-18.4-18.4c-24.8,0-49.6,0-74.5,0c-1.4,0-2.9,0.3-4.3,0.7
	c-9.3,2.2-14.8,9.8-14.8,20.1c0,26.7,0,53.3,0,80c0,6.5,1.8,12.1,6.8,16.6c1,0.9,1.5,2.4,2.2,3.6c-5.4,0-10.7,0-16.9-0.4
	c-0.2-2.5,0.8-4.7,0.8-6.9c0.1-35.3,0.1-70.6,0.1-105.9c0-5.9-2-7.9-8-7.9c-9.7,0-19.3,0-29,0c-7.3,0-9,1.7-9,8.8
	c0,29.1-0.1,58.3,0,87.4c0,8.3,0.6,16.5,1,24.8c-14.4,0-28.7,0-43.8-0.4c-0.2-2.4,0.8-4.3,0.8-6.3c0.1-24,0.1-48,0.1-72
	c0-1.7,0-3.5,0-5.3c10,0,19.4,0,28.7,0c4.3,0,6.6-1.5,6.4-6.4c-0.3-8-0.1-16-0.1-24c0-6.1-0.5-6.6-6.5-6.6C82.3,79,46.1,79,10,79
	c0-3.7,0-7.4,0.4-11.5c3.5,3.1,7.2,4.7,12.1,4.6C35.6,71.8,48.7,72,61.9,72c7.5,0,12.1-4.7,12.1-12.2c0-14.5-0.1-29,0.1-43.4
	c0.1-6-1.1-11-6.9-13.8C66.9,2.4,67,1.5,67,1c4.7,0,9.4,0,14.8,0.4C82,3,81,4.4,81,5.7c-0.1,20.5-0.1,41-0.1,61.5
	c0,3.3,1.5,4.9,4.8,4.8c5.8,0,11.7,0,17.5,0c3.3,0,4.8-1.6,4.8-4.9c0-6.2,0-12.3,0-18.5c0-0.9,0.4-1.8,0.9-3.7
	c3.6,8.5,6.9,15.7,9.6,23.2c1.1,3.1,2.8,3.9,5.6,3.9c5.2,0,10.3-0.1,15.5,0c3.7,0.1,5.5-1,5.5-5.3c-0.2-18.2,0-36.3-0.1-54.5
	c0-3.7-0.6-7.5-1-11.2c3,0,6.1,0,9.8,0.4c0.2,1.7-0.8,3-0.8,4.3c-0.1,20.8,0,41.6-0.1,62.5c0,3.2,1.4,4,4.3,3.9
	c5.2-0.1,10.3-0.2,15.5,0c4.7,0.2,6.4-1.6,6.4-6.4c-0.2-17.8,0-35.6-0.1-53.5c0-3.7-0.6-7.5-1-11.2c2.7,0,5.4,0,8.9,0.4
	c0.2,2-0.7,3.6-0.8,5.3c-0.2,4.1,0.1,8.3-0.1,12.5c-0.2,3.7,0.9,5.1,4.8,4.9c5.1-0.3,10.2-0.1,15.3-0.1c0,14.7,0.1,28.7,0,42.6
	c0,3.8,1.5,5.5,5.3,5.4c5.2-0.1,10.3-0.2,15.5,0c4.8,0.3,6.4-1.6,6.4-6.4C232.8,51.9,233,38.2,233,24c5.7,0,11,0.2,16.2-0.2
	c1.3-0.1,3.6-2,3.6-3.1c0-6.6-0.5-13.1-0.8-19.7c4.4,0,8.7,0,13.8,0.3c-5.5,4.4-6.4,10.5-5.9,17.4c0.4,4.8,0,9.7,0.1,14.5
	c0,6.2,4.6,10.8,10.8,10.8c7.3,0,14.7,0.1,22,0c3.8-0.1,5.5,1.6,5.3,5.4c-0.1,1.5,0,3,0,4.5c-0.1,2.8-1.2,4.3-4.5,4.2
	c-7.2-0.1-7.2,0.1-7.8-7.8c-8.5,0-17.1,0-25.7,0c0,3.6,0,7,0,10.3c0,6.6,4.2,11.3,10.7,11.4c14.1,0.2,28.3,0.1,42.5,0
	c6.5-0.1,10.8-4.7,10.8-11.2c0-7,0-14,0-21c0-5.1-2.8-9.2-7.8-9.7c-7.5-0.8-15.1-0.9-22.7-1.1c-7.6-0.2-7.7-0.2-7.6-7.6
	c0-3.8,1.3-6.1,5.4-6.5c4.4-0.4,6.2,1.4,6.8,5.6c0.2,1.3,2.2,3.2,3.5,3.3c6.1,0.3,12.3,0,18.5,0.2c3.2,0.1,4-1.3,4-4.2
	c0-6.7,0.9-13.6-6.2-17.8C317.7,2,317.9,1.4,318,1z"/>
<path d="M194.4,200c-1.2-1.2-1.7-2.7-2.7-3.6c-5-4.5-6.8-10.1-6.8-16.6c0-26.7,0-53.3,0-80c0-10.4,5.5-18,14.8-20.1
	c1.4-0.3,2.9-0.7,4.3-0.7c24.8,0,49.6,0,74.5,0c10.4,0,18.4,8,18.4,18.4c0,4.3-0.2,8.7,0.1,13c0.3,4-1.9,5.5-5.2,5.5
	c-11.8,0.1-23.7,0.1-35.5,0c-3.5,0-5.7-1.5-5.5-5.8c0.3-6.4-1.7-8.1-8-8.2c-2,0-4,0-6,0c-3.8,0.1-5.9,2-5.9,5.7
	c0,21.2,0,42.3,0,63.5c0,3.3,1.5,4.8,4.8,4.8c3.5,0,7,0,10.5,0c3.4,0,4.7-1.7,4.7-4.9c-0.1-5.7-0.1-11.3,0-17c0.1-3.5-1.4-5.4-5-5.1
	c-4.8,0.5-6-2.3-6-6.2c0-4-0.1-8,0-12c0.1-3.7,1.4-6,5.9-5.9c15.2,0.2,30.3,0.2,45.5,0c4,0,5.7,1.4,5.7,5.5c-0.1,17.7,0,35.3-0.1,53
	c-0.1,7.1-3.9,12.1-9.2,16.3C256.9,200,225.9,200,194.4,200z"/>
<path d="M429.4,200c-1.1-5.8-2.3-11.6-2.4-17.4c-0.2-31.2-0.1-62.3-0.1-93.5c0-7.6,2.4-10.1,9.8-10.1c31,0,62,0,93,0
	c7,0,9.2,2.3,9.2,9.5c0,16.5,0,33,0,49.5c0,8.7-1.9,10.8-10.6,11.2c3.9,13.4,7.8,26.7,11.7,40c0.2,0.6,0.8,1,1.6,1.1
	c0.3,3,0.3,6.3,0.3,9.7c-13.4,0-26.7,0-40.2-0.3c-1-1.7-2.2-3-2.7-4.5c-4.5-15.3-8.9-30.7-13.2-46c-4.4,0-8.5,0-13.9,0
	c0,17.1,0,33.9,0,50.8C457.9,200,443.9,200,429.4,200 M479,100c-4.4,0.7-6.5,3-6.1,7.7c0.3,4,0.1,8,0.1,12c-0.1,4.2,1.7,6.3,6.1,6.3
	c6.7-0.1,13.3-0.1,20,0c4.3,0,6.1-2.2,6-6.3c-0.1-4.2,0-8.3,0-12.5c0-5-2-7.1-7.1-7.2C491.9,99.9,485.9,100,479,100z"/>
<path d="M305.4,200c-0.5-37.8-0.5-75.7-0.5-113.5c0-5.9,1.7-7.5,7.6-7.5c33.7,0,67.3,0.1,101-0.1c4.7,0,6.7,1.5,6.4,6.3
	c-0.3,4-0.3,8,0,12c0.3,3.8-1.1,4.9-4.8,4.8c-21.2-0.1-42.3-0.1-63.8-0.1c0,7.8,0,15.5,0,23.8c1.1,0.1,2.5,0.2,3.9,0.2
	c16.7,0,33.3,0.2,50-0.1c5-0.1,7.2,1.3,6.8,7c-0.3,3.3-0.2,6.7,0,10c0.3,4.5-1.5,6.2-6,6.2c-17-0.2-34-0.1-51-0.1
	c-1.1,0-2.3,0-3.7,0c0,9.6,0,19,0,28.8c1.4,0.1,2.8,0.2,4.2,0.2c19.8,0,39.7,0.1,59.5-0.1c4,0,5.3,1.2,5.1,5.2
	c-0.3,5.3-0.1,10.7-0.1,16.5C381.9,200,343.9,200,305.4,200z"/>
<path d="M10,79.5C46.1,79,82.3,79,118.5,79c6,0,6.5,0.5,6.5,6.6c0,8-0.2,16,0.1,24c0.2,4.9-2.1,6.4-6.4,6.4c-9.3,0-18.7,0-28.7,0
	c0,1.8,0,3.6,0,5.3c0,24,0,48-0.1,72c0,2-1,4-1.2,6.3c-14.1,0.4-28.4,0.4-42.9,0c-0.7-2.7-1.7-5-1.7-7.3
	c-0.1-23.7-0.1-47.5-0.1-71.2c0-1.6,0-3.2,0-4.6c-11.7-0.5-22.8-1-34-1.5C10,103.3,10,91.6,10,79.5z"/>
<path d="M133.4,200c-0.8-8.3-1.4-16.5-1.4-24.8c-0.1-29.1,0-58.3,0-87.4c0-7.2,1.7-8.8,9-8.8c9.7,0,19.3,0,29,0c6,0,8,2,8,7.9
	c0,35.3,0,70.6-0.1,105.9c0,2.2-1,4.3-1.2,6.9C162.6,200,148.3,200,133.4,200z"/>
<path d="M143.5,1c0.8,3.7,1.4,7.5,1.4,11.2c0.1,18.2-0.1,36.3,0.1,54.5c0.1,4.3-1.7,5.4-5.5,5.3c-5.2-0.1-10.3-0.1-15.5,0
	c-2.8,0-4.5-0.8-5.6-3.9c-2.7-7.5-6-14.7-9.6-23.2c-0.5,1.9-0.9,2.8-0.9,3.7c-0.1,6.2-0.1,12.3,0,18.5c0,3.3-1.4,4.9-4.8,4.9
	c-5.8,0-11.7,0-17.5,0c-3.3,0-4.8-1.6-4.8-4.8c0-20.5,0-41,0.1-61.5c0-1.3,1-2.6,1.2-4.3C89.6,1,97.3,1,105.2,1.3
	c1.4,2.4,2.8,4.4,3.7,6.6c3,7,5.9,14.2,8.8,21.2c0.2-0.1,0.5-0.2,0.7-0.2c0.5-9.3,1-18.6,1.5-27.9C127.6,1,135.3,1,143.5,1z"/>
<path d="M542,69.5c-7.7,4.3-15.9,1.9-23.8,2.4c-3.1,0.2-4.2-1.9-4.2-4.8c0.1-7.5,0-15,0-22.8c-3.5,0-7,0-11,0
	c0,7.1-0.2,14.3,0.1,21.6c0.1,4.5-1.5,6.4-6.1,6.1c-5.2-0.2-10.3-0.3-15.5,0c-4,0.2-5.4-2-5.4-5.3c-0.1-17.5-0.1-35,0-52.5
	c0-5.5,2.8-9.8,7.2-13c16.4-0.3,33.1-0.3,50,0c2.5,3.1,4.9,5.9,7.3,8.6c0.2,0.3,1,0.1,1.5,0.1C542,29.7,542,49.4,542,69.5 M507.6,16
	c-5.2,0.4-5.8,2.3-4.1,12.7c3.4,0,6.8,0,10.5,0c0-2.6-0.2-4.9,0-7.2C514.5,17.2,512.9,15.3,507.6,16z"/>
<path d="M66.5,1c0.5,0.5,0.4,1.4,0.6,1.5c5.8,2.9,7,7.8,6.9,13.8c-0.2,14.5-0.1,29-0.1,43.4c0,7.5-4.6,12.2-12.1,12.2
	c-13.1,0-26.3-0.2-39.4,0.1c-4.9,0.1-8.6-1.6-12.1-5.1C10,47,10,27,10.3,6.5C12.5,4.3,14.2,2.7,16,1C32.6,1,49.3,1,66.5,1 M44.2,16
	c-1.7,0-3.5-0.4-4.9,0.1c-1.3,0.5-3.1,2.1-3.1,3.2c-0.2,11.5-0.2,23-0.1,34.4c0,4.7,3.6,4.1,6.8,4.3c3.4,0.2,4.3-1.3,4.2-4.4
	c-0.1-11.1,0-22.3-0.1-33.4C46.9,18.8,45.7,17.4,44.2,16z"/>
<path d="M393.5,1c1.1,5.1,2.3,10.2,2.4,15.3c0.3,14,0,28,0.1,42c0.1,8.8-5,14.1-13.6,13.9c-13-0.4-26-0.2-39-0.1
	c-8.2,0.1-12.3-5-12.4-12.4c-0.2-17.5-0.1-35,0.1-52.4c0-1.9,1.6-3.7,2.2-5.9c7.4-0.3,15.1-0.3,22.9,0c0.7,2.2,1.7,4,1.7,5.8
	c0.1,15.1,0.1,30.3,0,45.4c0,4.1,1.8,5.5,5.7,5.5c3.8-0.1,5.4-1.2,5.4-5.4c0.1-17.2,0.6-34.5,0.9-51.7C377.6,1,385.3,1,393.5,1z"/>
<path d="M317.5,1c0.4,0.4,0.2,1,0.3,1.1c7.2,4.2,6.2,11.1,6.2,17.8c0,2.9-0.8,4.3-4,4.2c-6.2-0.2-12.3,0.1-18.5-0.2
	c-1.3-0.1-3.3-2-3.5-3.3c-0.5-4.3-2.4-6.1-6.8-5.6c-4.1,0.4-5.4,2.7-5.4,6.5c0,7.4,0,7.4,7.6,7.6c7.6,0.2,15.1,0.3,22.7,1.1
	c4.9,0.5,7.7,4.5,7.8,9.7c0,7,0,14,0,21c0,6.5-4.3,11.1-10.8,11.2c-14.2,0.1-28.3,0.1-42.5,0c-6.5-0.1-10.7-4.8-10.7-11.4
	c0-3.3,0-6.6,0-10.3c8.7,0,17.2,0,25.7,0c0.6,7.8,0.6,7.7,7.8,7.8c3.3,0,4.3-1.4,4.5-4.2c0.1-1.5-0.1-3,0-4.5
	c0.2-3.8-1.5-5.4-5.3-5.4c-7.3,0.1-14.7,0.1-22,0c-6.2,0-10.7-4.6-10.8-10.8c0-4.8,0.3-9.7-0.1-14.5c-0.5-6.9,0.4-13,6.4-17.4
	C283,1,300,1,317.5,1z"/>
<path d="M468.5,1c-0.6,2.3-1.4,4.8-2.9,6.7c-4.8,6.2-10.1,12-14.8,18.2c-1,1.3-1.1,4.3-0.3,5.8c5.6,11.6,11.5,23,17.2,34.5
	c0.8,1.6,1.1,3.5,1.8,5.7c-7.3,0-13.8,0.4-20.2-0.2c-2.2-0.2-4.9-2.4-6.2-4.4c-3.1-4.9-5.3-10.3-8.1-15.4c-0.6-1.2-2-2-3-3
	c-0.6,1.4-1.7,2.7-1.8,4.2c-0.3,4-0.1,8-0.1,12c-0.1,5.9-1,6.8-6.9,6.8c-4.7,0-9.3-0.2-14,0.1c-4.4,0.2-6.3-1.4-6.2-6
	c0.1-19.8,0-39.6,0.1-59.4c0-1.7,1-3.3,1.2-5.3c7.4-0.4,15.1-0.4,22.9,0c1,2.7,2.3,5,2.7,7.4c0.4,3.3,0.1,6.8,0.1,11.5
	c2.6-3,4.4-4.7,5.9-6.7C439,9.4,441.9,5.2,445,1C452.6,1,460.3,1,468.5,1z"/>
<path class="st0" d="M10,115.5c11.2,0,22.3,0.5,34,1c0,1.4,0,3,0,4.6c0,23.7,0,47.5,0.1,71.2c0,2.3,1,4.7,1.2,7.3
	C33.3,200,21.7,200,10,200C10,172,10,144,10,115.5z"/>
<path d="M251.5,1c0.8,6.6,1.3,13.1,1.3,19.7c0,1.1-2.3,3-3.6,3.1c-5.3,0.4-10.6,0.2-16.2,0.2c0,14.2-0.1,27.9,0.1,41.7
	c0.1,4.7-1.6,6.6-6.4,6.4c-5.1-0.3-10.3-0.1-15.5,0c-3.8,0.1-5.3-1.6-5.3-5.4c0.1-14,0-28,0-42.6c-5.1,0-10.2-0.2-15.3,0.1
	c-3.8,0.2-5-1.3-4.8-4.9c0.3-4.1-0.1-8.3,0.1-12.5c0.1-1.7,1-3.3,1.2-5.3C208.3,1,229.7,1,251.5,1z"/>
<path d="M177.5,1c0.8,3.7,1.4,7.5,1.4,11.2c0.1,17.8-0.1,35.7,0.1,53.5c0,4.7-1.6,6.6-6.4,6.4c-5.2-0.3-10.3-0.2-15.5,0
	c-2.8,0.1-4.3-0.7-4.3-3.9c0.1-20.8,0-41.6,0.1-62.5c0-1.3,1-2.6,1.2-4.3C161.6,1,169.3,1,177.5,1z"/>
<path class="st0" d="M472.4,200c-0.5-16.8-0.5-33.7-0.5-50.8c5.4,0,9.5,0,13.9,0c4.4,15.3,8.7,30.6,13.2,46c0.4,1.5,1.6,2.8,2.2,4.5
	C491.6,200,482.3,200,472.4,200z"/>
<path class="st0" d="M369.5,1c0.1,17.2-0.3,34.4-0.4,51.7c0,4.2-1.7,5.3-5.4,5.4c-3.9,0.1-5.7-1.4-5.7-5.5c0.1-15.1,0.1-30.3,0-45.4
	c0-1.8-1-3.6-1.2-5.8C361,1,365,1,369.5,1z"/>
<path class="st0" d="M119.5,1c0,9.3-0.5,18.6-1.1,27.9c-0.2,0.1-0.5,0.2-0.7,0.2c-2.9-7.1-5.7-14.2-8.8-21.2
	c-0.9-2.2-2.4-4.2-3.3-6.6C110.3,1,114.7,1,119.5,1z"/>
<path class="st0" d="M444.5,1c-2.5,4.2-5.5,8.4-8.6,12.5c-1.5,2-3.3,3.8-5.9,6.7c0-4.8,0.3-8.2-0.1-11.5c-0.3-2.4-1.6-4.7-2.2-7.4
	C433.3,1,438.7,1,444.5,1z"/>
<path class="st0" d="M542,9.5c-0.5,0.5-1.2,0.7-1.5,0.4c-2.4-2.7-4.8-5.5-6.8-8.6C536.5,1,539.1,1,542,1C542,3.7,542,6.3,542,9.5z"
	/>
<path class="st0" d="M15.5,1c-1.3,1.7-3,3.3-5.1,5C10,4.4,10,2.8,10,1C11.6,1,13.3,1,15.5,1z"/>
<path class="st0" d="M479.4,100c6.4,0,12.4-0.1,18.4,0c5,0.1,7.1,2.2,7.1,7.2c0,4.2-0.1,8.3,0,12.5c0.1,4.2-1.7,6.4-6,6.3
	c-6.7,0-13.3-0.1-20,0c-4.3,0-6.1-2.1-6.1-6.3c0.1-4,0.3-8-0.1-12C472.5,103,474.5,100.7,479.4,100z"/>
<path class="st0" d="M508,16c4.9-0.7,6.5,1.2,6,5.6c-0.3,2.3,0,4.6,0,7.2c-3.6,0-7.1,0-10.5,0C501.7,18.3,502.3,16.4,508,16z"/>
<path class="st0" d="M44.6,16c1.1,1.4,2.2,2.8,2.2,4.2c0.1,11.1,0,22.3,0.1,33.4c0,3.1-0.8,4.6-4.2,4.4c-3.2-0.2-6.8,0.4-6.8-4.3
	c-0.1-11.5-0.1-23,0.1-34.4c0-1.1,1.8-2.7,3.1-3.2C40.7,15.6,42.5,16,44.6,16z"/>
</svg>
