<svg version="1.2" xmlns="http://www.w3.org/2000/svg" viewBox="0 0 64 67" width="64" height="67">
	<title>logo_footer_01-svg</title>
	<style>
		.s0 { fill: #000000 } 
	</style>
	<g id="Layer">
		<path id="Layer" fill-rule="evenodd" class="s0" d="m55.9 1.5c0.9 0.7 1.3 1.7 1.3 3.9 0 1.8-0.1 2.1-0.7 3.5-0.9 2.1-1.6 5.1-1.6 6.6-0.1 1.7 0.4 2.7 2.2 4.5 1.8 1.9 3 3.6 4.1 5.8 1.4 3.2 2.2 6.8 1.9 10-0.2 3-0.8 4.6-2.6 6.5-0.6 0.7-1.4 1.8-1.9 2.6-1 1.6-1.2 1.7-2.3 1.4l-0.8-0.3-1.2 1.2c-0.7 0.6-1.3 1.1-1.5 1.1-0.2 0-0.5-0.2-0.7-0.5-0.1-0.3-0.5-0.6-0.7-0.7-1-0.2-3.2 1.5-4.6 3.6-0.6 1-1.1 2.2-3.3 7.9-1.5 3.7-3.7 7-4.9 7.4-0.3 0-0.7-0.1-1.2-0.5l-0.7-0.5-1 0.7c-0.6 0.4-1.3 0.7-1.5 0.7-0.2 0-0.8-0.4-1.3-0.8l-1-0.8-1.3 0.1c-1.4 0.1-1.4 0.1-2.2-0.6-1.2-1.1-3.3-3.9-4.5-5.9-0.5-0.9-1.4-2.8-1.9-4.1-0.6-1.4-1.3-2.8-1.6-3.1-1-1.4-3.2-2.7-4.5-2.7-0.3 0-0.7 0.2-1 0.5-0.6 0.7-0.8 0.6-3-1.5-1.7-1.6-1.9-1.7-2.6-0.9-0.2 0.2-0.4 0.4-0.6 0.4-0.6 0-3-3.1-3.7-4.7-0.3-0.7-0.7-0.8-1.5-0.2-0.5 0.4-0.6 0.4-0.8 0-0.6-0.8-0.8-2.1-0.8-4.9v-2.8l-0.6-0.2-0.6-0.2 0.2-1.6c0.1-1.9 0.7-4.3 1.3-5.9l0.3-1-0.4-0.3c-0.7-0.4-0.6-0.8 0.1-2.3 0.5-0.9 1.2-1.8 3.4-4 2.6-2.5 2.9-2.8 2.9-3.4 0-0.6-1.3-3.5-2.2-4.7-1.1-1.6-2.3-4.7-2.5-6.8-0.1-1.5 0.2-2.1 1.3-2.6 1.2-0.5 3.3-0.1 8.2 1.5 2.1 0.7 3.5 0.7 6.8 0.2 5-0.8 7.2-1 11.7-0.9 4.3 0.1 5.4 0.3 9.7 1.1q2.6 0.5 3.5 0.4c0.5-0.1 2.6-0.7 4.7-1.4 4.1-1.4 5.1-1.6 6.2-0.8zm-4.8 2.2c-1.8 0.8-3.1 1.6-4.3 2.7-0.8 0.7-0.8 0.7-0.8 2.2 0 1.1 0.1 1.5 0.3 1.6 0.5 0.1 1.3-0.3 1.7-1 0.4-0.8 0.8-1.2 2.4-2.2 2.1-1.4 2.9-1.1 2.9 0.9 0 0.8 0.1 1.2 0.4 1.4 0.9 0.9 1.8-1 1.8-3.8 0-1.4 0-1.6-0.5-2.1-0.7-0.7-1.8-0.6-3.9 0.3zm-45.4 1.7c0.3 1.8 0.9 3 2.6 5.4 1.6 2.5 1.9 2.7 2.3 2.3 0.2-0.2 0.2-0.5 0-1.9-0.3-1.8-0.4-2.2-0.7-2.2-0.4 0-1.6-0.9-1.6-1.2 0-0.6 0.9-0.6 2.7-0.2 0.9 0.3 2 0.5 2.5 0.5 0.8 0 0.9-0.1 0.9-0.4 0-0.2-0.3-0.6-0.6-0.9-0.7-0.6-4.1-2.3-5.9-2.9-2.1-0.7-2.6-0.4-2.2 1.5zm16.2 0.4c-3 1.2-5.7 5.2-4.5 6.7 0.7 0.8 3.9 2.1 6.5 2.5 1.2 0.2 1.9 0.5 2.4 0.9 2.5 1.8 4.5 3.4 4.6 3.6 0.3 0.4 1.3-1 1.3-1.8 0-0.6 0.8-1.4 1.6-1.6 0.6-0.1 0.9-0.4 1.1-0.9 0.3-0.5 0.3-0.7 0-1.2-0.6-1.2-1.5-1.1-5.4 0.3-1.7 0.6-2.4 0.8-2.6 0.6-0.5-0.4-0.3-0.9 0.7-1.7 0.4-0.4 0.8-0.9 0.8-1 0-0.4-1.4-0.1-3.1 0.6-1.7 0.6-2.2 0.7-2.7 0.2-0.9-0.9 0.1-1.7 3.6-2.8q4.5-1.4 1.9-1.4c-1.4 0-3.3 0.5-5.5 1.4-1.1 0.4-2.2 0.7-2.3 0.7-0.6-0.2-0.4-1 0.5-1.8 1.4-1.3 2.6-1.8 5.1-2.1 2.2-0.3 3.9-0.9 3.9-1.3 0-0.1-0.2-0.3-0.4-0.4-1.1-0.6-5.4-0.3-7.5 0.5zm13.8 0.7c0.2 0.2 0.8 0.3 2.5 0.4 2.8 0.2 4.2 0.8 3.5 1.6-0.2 0.3-0.8 0.3-2.7 0.3-1.8 0-2.5 0.1-2.8 0.3-0.3 0.3-0.3 0.4 0.2 0.8 0.7 0.7 2.6 1.3 3.9 1.5 1.1 0 1.2 0 2.1-0.8 1.2-1.2 1.9-2.5 1.7-3.2-0.2-0.6-1.6-1.1-3.9-1.6-3-0.6-5.5-0.3-4.5 0.7zm5.4 8c-0.5 0.6-0.8 1.2-0.7 1.3 0.1 0.4 1.8 0.4 3.2-0.2 1.3-0.5 1.4-0.5 3.1-0.3 1 0.1 2.1 0.3 2.5 0.3 0.7 0.2 0.8 0.1 1.4-0.5 0.6-0.6 0.9-1.4 0.7-1.7-0.1-0.1-0.4 0-0.8 0.1-0.5 0.2-0.8 0.2-1.5-0.1-0.7-0.3-1-0.3-1.8-0.1-1.5 0.4-2 0.3-2.8-0.3-1.4-1-1.5-1-3.3 1.5zm-26.6-0.9c-0.2 0.2-0.4 0.8-0.7 1.4-0.2 0.6-0.7 1.4-1.1 1.8-1.1 1.2-1.3 1.8-1.3 3.7 0 1.5 0.1 2 0.5 3 0.2 0.6 0.6 1.2 0.8 1.3 0.6 0.4 0.8-0.1 0.9-2.1 0-1.1 0-2.1 0.1-2.4 0.1-0.2 0.7-0.8 1.3-1.3 0.7-0.6 1.2-1.1 1.2-1.3 0-0.2 0.1-0.9 0.3-1.5 0.3-1.3 0.2-2-0.5-2.4-0.6-0.5-1.2-0.6-1.5-0.2zm3.5 2.7c0 0.8 0.6 2.4 1.2 3.1 0.3 0.4 0.9 1.3 1.2 2 0.8 1.5 1.7 2.5 3.1 3.3 1 0.5 1 0.5 1.5 0.1 0.7-0.5 1.2-1.3 1-1.7 0-0.1-0.8-0.5-1.6-0.8-2.1-0.8-2.8-1.5-3.4-3.5-0.7-2.3-0.9-2.7-1.3-3-0.8-0.5-1.7-0.2-1.7 0.5zm6-0.2c-1.1 0-1.1 0.5-0.1 1.4 1 1 2 1.1 2 0.3 0-0.3-0.3-0.8-0.6-1.1-0.4-0.4-0.8-0.6-1.3-0.6zm27.3 1.7c-0.8 1.2-1.8 2-3.6 2.9-1.5 0.8-2.4 1.7-3 2.8-0.4 0.6-0.3 1.1 0.3 2.5 0.4 1.1 0.6 1.3 0.9 1.3 0.7 0 1.3-0.8 1.4-1.9 0.2-1.5 0.7-2.5 1.8-3.2 2.7-1.8 4-3.7 3.5-5-0.2-0.6-0.7-0.3-1.3 0.6zm-6.7-0.6c-0.9 0.4-1.2 1.3-0.6 1.7 1.2 0.6 3.3-0.6 2.4-1.4-0.4-0.2-1.4-0.4-1.8-0.3zm-35.5 0.9c-0.1 0-1 0.8-2 1.8-1.8 2-2.1 2.6-1.5 3.1 0.5 0.4 0.4 1-0.7 2.8-1.3 1.9-1.6 2.8-1.5 4.2 0.1 0.9 0.1 0.9 0.6 1q1.2 0.1 0.7 2.6c-0.3 1.5-0.3 3.7 0 4.3 0.2 0.4 0.3 0.4 0.8 0.2 0.4-0.2 0.5-0.2 0.8 0.2 0.2 0.2 0.5 1.1 0.7 1.9 0.2 0.8 0.5 1.7 0.8 2 0.6 0.7 9.2 5 10.1 5 0.4 0 0.3-0.7-0.2-1.4-0.3-0.3-1-0.9-1.7-1.2-0.6-0.4-1.6-1.2-2.3-1.8-1.1-1.2-1.1-1.2-2.1-1.2-1 0-1.1-0.1-1.4-0.8-0.2-0.3-0.5-1.9-0.7-3.4-0.2-1.6-0.5-3-0.6-3.1-0.2-0.2-0.5-0.3-0.9-0.2-1.2 0.1-1.3-0.2-1.2-3.1 0-2.2 0.2-2.9 0.7-4.5 0.3-1 0.7-2.3 0.8-2.8 0.1-0.6 0.4-1.7 0.7-2.6 0.3-1.1 0.5-1.8 0.4-2.3-0.1-0.4-0.2-0.7-0.3-0.7zm13.2 0.3c0 1 1.8 2.6 3.3 3 0.9 0.3 1.9-0.1 2.4-0.8 0.5-0.9 0.2-1.2-0.8-1.1-1.7 0.4-2.2 0.3-3.5-0.6-1.3-0.9-1.4-1-1.4-0.5zm11 2.8c0 0.5 0.1 0.5 0.9 0.7 1.6 0.3 1.8 1 0.3 1.5-1.3 0.4-3.3 1.3-3.3 1.5 0 0.2 0.5 0.2 1.2 0.2 1 0 1.2 0.1 1.3 0.5 0.2 0.5-0.1 0.8-1.9 1.4-1.8 0.6-2.2 1-1.7 1.4 0.2 0.2 0.5 0.3 1.4 0.1 1.4-0.2 2.9 0 4.7 0.9 1.6 0.6 2.7 0.8 3.8 0.5 0.9-0.3 2.7-1.5 2.7-1.9 0-0.4-1.2-0.7-2.7-0.7-1.4 0-1.8-0.3-1.6-1.1 0.1-0.3 0.4-0.5 1.4-0.9 2.7-0.9 2.1-1.6-1.5-1.7-0.4 0-0.1-0.8 0.3-1.2 0.8-0.8 0.9-1.1 0.7-2-0.1-0.5-0.4-1-0.5-1.2-0.9-1-5.5 0.7-5.5 2zm8-0.8c0 0.7 0.1 1 0.6 1.4 0.8 0.8 1.5 1 2 0.4 0.5-0.7 0.4-1.1-0.4-1.6-0.4-0.3-0.9-0.7-1.1-0.9-0.7-0.8-1.1-0.6-1.1 0.7zm-24.7-0.4c-0.1 0-0.3 0.3-0.5 0.6-0.3 0.4-0.3 0.8-0.2 2.4 0.1 2.9 1 6 2.4 9 0.2 0.6 0.6 2 0.8 3 0.4 2.4 0.9 4.7 1.3 5.4 0.6 1.2 2.1 1.5 3.3 0.7 0.6-0.3 0.5-0.7-0.3-1.9-2.2-3.4-2.2-4.7 0.2-7.2 1.1-1.1 1.1-1.2 0.9-1.6-0.6-0.8-2.1-1.8-3.6-2.4-2.6-0.9-2.9-1.5-1.3-2.2 1.1-0.5 1.2-0.8 0.5-2.1-0.6-1.2-1.3-2.1-2.4-2.9-0.5-0.4-1-0.8-1.1-0.8zm13.4 1.6c-0.1 0-0.5 0.6-1.1 1.4-0.5 0.7-1.3 1.9-1.8 2.5-1.1 1.5-1.3 1.9-1 2.7 0.2 0.8 0.9 1.7 1.2 1.7 0.3 0 1.4-2.8 1.6-3.9 0.1-0.4 0.6-1.2 1-2 1-1.4 1.1-1.6 0.6-2.1-0.2-0.1-0.5-0.3-0.5-0.3zm23.7 1.2c-0.3 0-1.4 1-1.4 1.4 0 0.4-0.8 0.9-1.5 0.9-0.7 0-0.9 0.1-1.3 0.7-0.6 0.8-1.3 2.5-1.3 3.3 0 0.4 0.2 1 0.5 1.4 0.3 0.3 0.6 1 0.7 1.4 0.1 0.5 0.5 1.5 0.9 2.4 0.6 1.3 0.7 1.7 0.6 2.6 0 0.6-0.2 1.5-0.4 1.9-0.2 0.4-1.5 1.8-2.8 3.1-2.5 2.6-4.1 4.7-5.3 7.3-0.4 0.8-0.7 1.8-0.7 2.1 0 0.7-1.3 4.1-1.9 5-0.4 0.7-1.5 0.8-2.8 0.4-1.4-0.4-3.3-0.3-4.6 0.3-0.5 0.2-1.1 0.4-1.4 0.4-0.8 0-1.8-0.7-2.5-1.7l-0.7-1 0.1-2.8c0.2-3.8 0.2-4.2-0.3-5.5-0.9-2.3-2.9-4.5-2.9-3.1 0 1 0.7 3.1 1.4 3.8q1 1.2 0.2 2c-0.8 0.8-1.2 0.6-2.3-1.7-1.1-2.2-1.1-2.1-2.4-2.8-1.2-0.6-2-1.3-2.6-2.3-0.2-0.3-0.5-0.9-0.8-1.3-0.2-0.3-0.4-0.8-0.4-1 0-0.5-0.6-1.3-0.9-1.3-0.1 0-0.5-0.2-0.8-0.4l-0.5-0.4v-3.2c0-3.6-0.1-4-1.2-4-0.7 0-0.9-0.3-1.3-1.9-0.3-1.2-0.5-1.5-1.3-2.3-0.5-0.6-1-1-1.2-0.9-0.4 0.1-0.9 1.2-1.1 2.4-0.3 2 0 3 2.1 6.7 0.5 1.1 0.6 1.5 0.6 2.6 0 0.8 0.2 1.5 0.4 1.9 0.3 0.8 1.6 1.8 3.6 3 2 1.1 3.3 2.5 3.7 3.9 0.4 1.8 0.6 2 1.4 2.5 1 0.7 2.2 1.9 2.6 2.8 0.3 0.4 0.8 1.7 1.2 2.9 1.5 4.5 1.6 4.7 3.6 6.1 1.1 0.8 2 0.8 4.1-0.2 2.3-1 2.5-1 3.3-0.3 1.1 0.9 1.5 1 2.7 1 1.2 0 1.9-0.4 2.4-1.4 0.7-1.3 1.6-3.9 2-5.5 1.1-4.4 2.8-6.9 6.3-9.4 1.7-1.2 2.5-2.1 2.9-3.5 0.4-1.1 0.4-1.9 0-2.7-0.3-0.7-0.3-1 0.1-2.8 0.4-2.2 0.3-3-0.7-3.9-0.5-0.5-0.8-0.9-0.8-1.1 0-0.5 1-2.4 1.7-3.3 0.5-0.5 1-1.2 1.2-1.6 0.5-0.8 0.8-2.2 0.4-2.6-0.1-0.2-0.4-0.3-0.6-0.3zm3.9 5.6c0.1 0.4 0.3 1.2 0.3 1.8 0 0.5 0.2 1.7 0.4 2.7 0.2 1.1 0.3 2.1 0.3 2.4-0.2 0.7-1.2 1.7-1.6 1.6-0.2-0.1-0.2-0.4-0.2-1.7 0.1-1.7 0-2.4-0.9-3.9-0.6-0.8-0.7-0.9-0.9-0.6-0.3 0.3-0.3 0.5-0.1 1.4 0.1 0.6 0.2 2.5 0.1 4.4 0 3.4 0 3.5-0.7 4.9-0.6 1.5-0.7 2.8-0.2 2.9 0.1 0.1 1-0.6 2.1-1.5 1-0.9 2-1.8 2.3-1.8 0.9-0.3 1.6-3.3 1.6-7.3 0-3-0.2-4-1.5-5.9-1.1-1.6-1.7-1.3-1 0.6zm-26.1 1.6c-0.7 0.3-1.3 1.3-1.2 1.8 0 0.6 0.3 0.6 1.9 0.3 1.1-0.2 1.6 0 2.7 0.9q1 0.8 1.3 1.6c1 2.3 1.4 2.9 1.8 2.9 0.6 0 1.1-0.4 1.7-1.6 0.8-1.6 1.9-2.5 3-2.5 1.8 0 2 0.9 0.6 2.2-0.5 0.5-1.4 1.2-1.9 1.6q-1.6 1.3-0.8 2.1c0.5 0.6 2.5 1.5 3.7 1.7 1.1 0.2 1.3 0.2 1.7-0.1 0.9-0.6 0.7-0.9-0.9-1.1-1.4-0.1-1.9-0.3-1.5-0.7 0.2-0.2 2.8-0.5 4.1-0.6 0 0 0.3-0.4 0.5-0.9 0.4-0.8 0.5-0.9 0.2-1.2-0.3-0.2-0.5-0.2-2.2 0.3-1 0.4-2 0.6-2 0.6-0.3 0-0.1-0.8 0.2-0.9 0.2-0.1 1-0.5 1.9-1 1.2-0.7 1.5-1 1.5-1.3 0-0.3-0.1-0.5-0.1-0.5-0.1 0-0.7-0.1-1.2-0.1-0.9 0-1.2-0.1-1.5-0.5-0.2-0.2-0.4-0.6-0.4-0.9 0-1.7-1.4-1.8-3.6-0.3-1.4 0.9-2 0.9-4.8-0.5-2.4-1.2-3.9-1.6-4.7-1.3zm-4.6 2c-0.5 0.1-1.2 0.5-1.2 0.7 0 0.5 1.8 1.6 3.1 2.1 1.3 0.4 1.7 0.8 1.2 1.2-0.1 0.2-0.6 0.1-1.9-0.1-1-0.2-2-0.4-2.4-0.5-1.2-0.2-1.6 0.8-0.7 1.6 0.6 0.6 1.5 0.7 3.7 0.2l1.6-0.3 0.4 0.4c0.5 0.7 0.3 0.8-2 1.3-2.4 0.6-2.9 1-2.1 1.8 0.5 0.4 1.3 0.3 3-0.5 1-0.5 2-0.8 2.4-0.8 1.2 0 2.2-0.4 3-1.2 1.5-1.4 0.9-2.3-2.5-3.2-1.1-0.3-3.5-1.5-4.7-2.3-0.3-0.2-0.7-0.4-0.9-0.4zm7.6 8.3c-1.4 0-1.7 0.1-2.2 0.4-0.6 0.5-0.6 1.2 0.1 1.3 0.2 0 0.5 0.3 0.6 0.6 0.3 0.6 0.6 0.5 1.3-0.2 0.3-0.3 0.6-0.5 0.7-0.5 0.1 0 0.5 0.2 0.8 0.5 0.8 0.7 0.9 0.8 1.5 0.1 0.6-0.6 0.9-0.6 1.8 0.1 0.5 0.4 0.7 0.4 0.8 0.2 0.3-0.4 0.2-1.5-0.1-1.7-0.1-0.1-1-0.3-2-0.5-0.9-0.2-2.4-0.3-3.3-0.3zm-4.6 1.1c-0.3-0.1-2 0.8-2 1.1 0 0.3 1.4 2.5 1.8 2.9 0.3 0.2 0.3 0.2 0.4 0 0-0.2 0.1-0.5 0.2-0.7 0.1-0.2 0.1-1 0-1.8-0.1-0.8-0.2-1.5-0.4-1.5zm11.7 0.6c-0.6 0.4-2 4.1-1.7 4.3 0.5 0.3 3.6-2.5 3.6-3.2 0-0.1-0.3-0.5-0.7-0.7-0.7-0.6-0.9-0.6-1.2-0.4zm-10.6 4.4c-0.4 1.2 0.2 3.7 1.1 5 0.7 1.1 0.8 1.7 0.3 2.1-0.4 0.3-1-0.1-1.8-1.4-0.7-1-1.1-1-1.3-0.2-0.2 1.2 0.4 2.8 1.4 3.2 0.6 0.3 0.8 0.2 2.1-0.1 1.3-0.4 1.8-0.4 3.6-0.3l2.1 0.1 0.5-0.6c0.5-0.6 1-2 0.8-2.5-0.1-0.2-0.3-0.1-0.9 0.5-1.2 1.1-1.6 1.3-2 0.9-0.5-0.4-0.5-0.4 0.3-1.7 0.8-1.4 1.2-2.9 1-4-0.2-0.9-1.1-1.9-2.4-2.3-2.6-0.8-4.3-0.4-4.8 1.3z"/>
	</g>
</svg>