<svg version="1.1" id="Layer_1" xmlns="http://www.w3.org/2000/svg" xmlns:xlink="http://www.w3.org/1999/xlink" x="0px" y="0px"
	 width="100%" viewBox="0 0 318 200" enable-background="new 0 0 318 200" xml:space="preserve">
<path fill="#222322" opacity="1.000000" stroke="none" 
	d="
M1.000001,155.000000 
	C1.000000,149.977905 1.000000,144.955811 1.403742,139.290894 
	C1.870224,115.413193 1.941056,92.178322 1.953744,68.943413 
	C1.954097,68.295784 1.331901,67.647812 1.000000,67.000000 
	C1.000000,64.629440 1.000000,62.258884 1.403270,59.304337 
	C3.720940,58.480228 5.635273,58.030628 7.549751,58.030003 
	C111.366493,57.996140 215.183243,58.000000 319.000000,58.000000 
	C319.000000,92.687561 319.000000,127.375122 318.635284,162.655090 
	C316.227875,174.680557 306.714508,182.855652 293.499634,182.936462 
	C261.516174,183.132095 229.530609,182.941132 197.546188,183.025589 
	C182.244614,183.065994 171.066925,191.978683 160.000000,201.000000 
	C160.000000,201.000000 159.500000,201.000000 159.155853,200.660767 
	C154.674332,197.514923 150.610764,194.591248 146.383652,191.927048 
	C138.548325,186.988754 130.558426,182.841873 120.764526,182.914841 
	C89.810509,183.145508 58.853489,183.066925 27.898060,182.970016 
	C13.736279,182.925674 1.941770,173.275696 1.956364,157.944946 
	C1.957298,156.963608 1.333289,155.981659 1.000001,155.000000 
M86.590782,149.058304 
	C79.625343,151.036667 73.703033,148.741547 67.020447,144.292328 
	C86.560829,137.693527 89.846832,121.953865 91.662834,105.211678 
	C83.525009,106.833168 75.635880,108.510353 67.691269,109.861313 
	C66.641327,110.039848 65.308578,108.555176 63.817688,107.668922 
	C63.804485,107.673813 63.319443,107.790154 62.895653,108.019608 
	C52.421188,113.690842 45.721249,122.036087 46.110897,134.357330 
	C46.449100,145.051865 52.426296,152.649017 61.825111,157.267746 
	C76.049171,164.257660 92.790489,158.203232 101.829758,145.914917 
	C99.136147,146.499084 96.694077,147.028702 94.030724,147.606308 
	C94.030724,146.353531 93.836792,145.161636 94.060310,144.054001 
	C96.679398,131.075119 99.256912,118.086098 102.084709,105.152069 
	C103.035538,100.803055 103.472969,96.602287 109.342079,94.508980 
	C114.802071,92.561569 119.244240,87.775269 121.057724,81.132935 
	C119.714554,81.132935 118.577393,80.979294 117.495537,81.158859 
	C112.074463,82.058640 106.699524,83.331345 101.248810,83.935509 
	C92.943321,84.856102 84.551857,85.047905 76.269905,86.115463 
	C71.704735,86.703926 67.104317,88.005981 62.849449,89.777916 
	C56.818596,92.289444 52.690750,96.693253 52.069839,103.805168 
	C67.840698,97.768799 84.058441,100.035027 99.962631,97.735031 
	C97.205101,110.591942 94.735542,122.761475 91.931984,134.853577 
	C90.818214,139.657410 88.964226,144.289612 86.590782,149.058304 
M168.707321,141.807846 
	C170.897659,130.684296 173.087997,119.560745 175.173843,108.967789 
	C173.068161,108.967789 170.066208,109.844368 168.067688,108.800255 
	C162.504150,105.893600 158.191803,108.579529 153.844498,111.068207 
	C145.965210,115.578812 139.674377,123.785583 143.108917,134.514206 
	C144.108231,137.635803 146.284561,140.380615 147.921371,143.298141 
	C148.404785,143.764191 148.888214,144.230240 149.371628,144.696289 
	C145.998779,147.045685 142.625916,149.395096 139.237732,151.755173 
	C148.529419,160.413849 167.063232,153.842056 168.707321,141.807846 
M241.935928,104.417137 
	C242.288788,96.003006 247.341232,92.489700 255.371613,95.074387 
	C263.726013,97.763359 267.647064,96.518990 273.273865,89.569702 
	C262.492554,87.514061 251.496948,85.574646 243.260300,95.548836 
	C237.244003,90.020844 237.244003,90.020844 229.845154,95.225327 
	C228.524582,102.722206 227.596573,109.059006 226.254715,115.306931 
	C224.919022,121.526154 227.840149,125.627480 234.151840,124.902710 
	C241.374359,124.073341 245.955795,119.100456 250.771698,113.084740 
	C241.239532,115.149910 240.409943,114.395943 241.194458,105.551720 
	C241.208405,105.394646 241.322800,105.246475 241.935928,104.417137 
M212.472702,113.005119 
	C216.274963,112.925125 217.838730,110.923805 218.055847,107.186462 
	C218.348145,102.154671 215.804520,98.250435 211.573212,97.469460 
	C207.186035,96.659714 202.013992,97.322449 197.792435,98.932907 
	C186.531464,103.228798 184.120270,116.492798 185.136322,124.972427 
	C185.624924,129.050064 188.203018,132.356369 192.553925,132.910339 
	C199.643097,133.812973 205.156204,130.659515 210.802582,124.550018 
	C207.248611,125.447624 205.112122,126.132629 202.922516,126.506798 
	C199.479752,127.095108 196.332977,126.389198 195.087036,122.731636 
	C193.965057,119.437973 196.369858,116.829063 200.440994,115.957756 
	C204.205383,115.152100 207.903152,114.035149 212.472702,113.005119 
M127.672127,117.126366 
	C125.640869,116.773254 122.746979,115.410660 121.747406,116.264847 
	C119.207634,118.435173 115.233704,120.353188 116.917580,125.156754 
	C117.301224,126.251190 116.685143,127.704208 116.501060,128.988159 
	C115.673058,134.763351 114.620758,140.516876 114.073006,146.318207 
	C113.684692,150.430923 116.911545,151.553741 119.826645,150.423996 
	C123.544525,148.983154 126.805573,146.363480 130.263535,144.251938 
	C124.452187,142.752289 126.068832,139.180634 126.359154,136.232574 
	C126.965721,130.073013 127.579445,123.914146 127.672127,117.126366 
M123.556679,100.963547 
	C122.155121,102.227692 120.753571,103.491844 119.246010,104.851608 
	C121.493675,106.207199 123.818161,107.609116 126.164772,109.024376 
	C128.910843,107.067513 131.599426,105.151642 134.287994,103.235764 
	C134.223618,102.642807 134.159256,102.049850 134.094879,101.456894 
	C130.748764,101.116058 127.402649,100.775230 123.556679,100.963547 
z"/>
<path fill="#FFFFFF" opacity="1.000000" stroke="none" 
	d="
M319.000000,57.583336 
	C215.183243,58.000000 111.366493,57.996140 7.549751,58.030003 
	C5.635273,58.030628 3.720940,58.480228 1.403270,58.860168 
	C1.000000,50.979099 1.000000,42.958202 1.365050,34.592815 
	C2.949285,42.950924 10.272962,52.489693 22.491837,54.675171 
	C42.927006,58.330223 58.562164,41.866398 54.426899,21.861965 
	C52.247452,11.318850 45.656055,4.849687 36.000000,1.000000 
	C101.354225,1.000000 166.708450,1.000000 232.531342,1.443401 
	C235.950333,19.148279 236.032867,36.443077 232.583984,53.704132 
	C240.349503,53.704132 247.092972,53.704132 254.931976,53.704132 
	C253.671402,49.182022 252.576721,45.254971 251.482025,41.327915 
	C256.685120,50.435852 263.337189,56.425941 274.845123,52.178955 
	C277.360046,43.267117 267.683075,40.164852 265.406219,32.983395 
	C266.841766,31.582073 268.329620,29.138866 270.467590,28.237083 
	C275.879364,25.954422 275.421509,21.884907 274.692200,17.339581 
	C267.813812,17.339581 260.946960,17.339581 254.119568,17.339581 
	C254.119568,20.332655 254.119568,22.984354 254.119568,25.678270 
	C255.377197,25.915916 256.522858,26.132408 256.571808,26.141655 
	C254.858627,28.041306 252.952591,30.154808 251.000000,32.319939 
	C251.000000,21.919664 251.000000,11.459832 251.000000,1.000000 
	C273.577759,1.000000 296.155548,1.000000 319.000000,1.000000 
	C319.000000,15.353127 319.000000,29.707905 318.585632,44.524300 
	C317.447571,43.720032 316.266052,42.511902 316.097504,41.175983 
	C315.766815,38.554764 316.060974,35.860737 315.988251,33.199799 
	C315.784119,25.731709 312.239380,19.943533 305.119446,18.274847 
	C299.480194,16.953180 293.261444,16.544027 287.557434,17.415123 
	C278.423004,18.810093 278.509003,19.401114 281.127625,28.347378 
	C281.199036,28.591368 281.590851,28.741562 281.837769,28.929867 
	C291.989349,25.162380 297.777924,26.159285 298.935822,31.000914 
	C295.244263,31.000914 291.350098,30.847294 287.472595,31.035959 
	C281.240295,31.339197 276.652740,35.394073 276.003082,40.897861 
	C275.481689,45.314945 277.357574,51.396103 284.545441,53.157078 
	C291.038635,54.747879 297.251526,54.931160 302.759399,50.336990 
	C303.972260,53.000000 303.972260,53.000000 319.000000,53.000000 
	C319.000000,54.388889 319.000000,55.777779 319.000000,57.583336 
M192.650833,17.000000 
	C187.050095,18.353418 180.726181,14.960134 175.939926,18.305561 
	C171.321182,17.862209 166.829712,16.762587 162.476227,17.163090 
	C155.154953,17.836618 151.140747,26.358994 153.923431,33.144417 
	C156.128647,38.521736 160.854614,39.431545 165.399963,41.017784 
	C167.417816,41.721985 169.350006,42.671642 171.321091,43.509880 
	C171.005585,44.253830 170.690094,44.997780 170.374588,45.741730 
	C167.632935,44.707359 164.961502,43.358814 162.130112,42.725864 
	C159.225220,42.076488 156.163910,42.126808 153.355728,41.886692 
	C153.355728,46.125633 153.355728,49.528790 153.355728,53.560246 
	C156.561630,52.934925 159.329025,51.917427 162.063934,51.998306 
	C164.709625,52.076546 167.281815,53.599289 169.956116,53.940559 
	C178.871002,55.078186 185.464066,51.163456 186.966934,44.118038 
	C188.166077,38.496506 183.886414,33.255733 175.917160,30.410988 
	C173.484177,29.542503 171.148941,28.400156 168.768951,27.383228 
	C168.891266,26.935774 169.013580,26.488319 169.135895,26.040865 
	C170.667068,26.128778 172.287384,25.925694 173.711823,26.362019 
	C177.248093,27.445204 180.694977,28.820236 184.558746,30.215647 
	C184.907181,27.617907 185.057373,26.498137 185.207581,25.378366 
	C185.675705,25.199278 186.143829,25.020189 186.611954,24.841101 
	C187.407959,26.762815 188.712753,28.638227 188.892746,30.616003 
	C189.253693,34.582367 188.483429,38.694580 189.158997,42.576221 
	C189.727676,45.843861 190.916672,49.681129 193.189545,51.828167 
	C197.426437,55.830505 205.653931,54.727962 209.980438,50.456261 
	C210.412277,50.029907 210.322357,49.075096 210.474594,48.365547 
	C210.923584,48.726860 211.372574,49.088173 211.821564,49.449486 
	C211.978317,50.605331 212.135056,51.761181 212.256424,52.656055 
	C218.429749,52.656055 224.178787,52.656055 230.126678,52.656055 
	C229.972260,49.993206 230.739120,46.548767 229.531189,45.588497 
	C226.229843,42.964066 227.096939,39.777340 227.037460,36.683090 
	C226.913589,30.238405 227.000000,23.789679 227.000000,17.244682 
	C220.450684,17.244682 214.377090,17.244682 208.183258,17.244682 
	C208.183258,20.108330 207.290161,24.536612 208.331055,25.050945 
	C214.217484,27.959591 211.624405,32.972641 211.782913,37.046284 
	C211.845001,38.641598 209.493362,40.330841 208.241028,41.977310 
	C207.160706,40.200249 205.258316,38.472298 205.148682,36.637245 
	C204.765106,30.216272 205.000061,23.758345 205.000061,17.000000 
	C200.872299,17.000000 197.240036,17.000000 192.650833,17.000000 
M58.815525,17.062140 
	C58.646606,19.923788 57.352413,24.592018 58.514923,25.316114 
	C62.354553,27.707726 60.738979,30.869616 60.928707,33.695377 
	C61.150055,36.992062 62.159485,41.653645 60.458878,43.352562 
	C57.365940,46.442425 58.275402,49.346912 58.050083,52.654099 
	C65.524124,52.654099 72.719467,52.654099 79.905579,52.654099 
	C79.905579,50.149410 80.777000,46.765949 79.757225,46.040333 
	C74.915405,42.595135 77.520607,37.896030 77.164497,33.824684 
	C77.031830,32.307800 78.768051,30.627449 79.652069,29.021639 
	C80.768013,30.765106 82.726196,32.452686 82.846275,34.262234 
	C83.250252,40.350285 82.999908,46.481758 82.999908,52.793358 
	C89.485466,52.793358 95.556763,52.793358 102.081947,52.793358 
	C101.934570,50.152203 102.629433,46.176552 101.512985,45.577698 
	C97.664696,43.513493 99.253334,40.418221 99.061050,37.742123 
	C98.811180,34.264473 99.025978,30.755062 98.993690,27.259756 
	C98.947601,22.270472 95.012535,15.702198 88.603714,17.039587 
	C84.376839,17.921648 80.229019,19.182552 76.032784,20.277227 
	C76.023384,20.118618 75.939667,18.705832 75.838921,17.005611 
	C70.382858,17.005611 65.072464,17.005611 58.815525,17.062140 
M149.454483,25.999411 
	C155.295837,24.254179 150.339966,20.049404 152.124649,17.168776 
	C149.715179,17.020700 147.971802,16.913561 145.838074,16.782433 
	C145.838074,13.037480 145.838074,9.629993 145.838074,6.287242 
	C140.344879,6.287242 135.276703,6.287242 130.540421,6.287242 
	C128.487091,10.088032 133.023178,15.873465 126.118835,17.592920 
	C126.118835,20.175758 126.118835,22.800392 126.118835,25.775070 
	C127.391846,25.927731 128.591721,26.071619 130.155441,26.259140 
	C130.155441,35.289471 130.155441,44.023186 130.155441,52.729496 
	C137.640106,52.729496 144.710175,52.729496 151.886536,52.729496 
	C151.886536,50.166122 151.886536,47.872757 151.886536,45.176067 
	C146.634613,45.501728 145.625092,42.378784 145.954498,37.972664 
	C146.189438,34.830246 145.817276,31.638592 146.116974,28.507278 
	C146.203476,27.603445 147.678818,26.832537 149.454483,25.999411 
M105.299629,44.955963 
	C104.700714,47.432178 104.101799,49.908394 103.439880,52.645077 
	C111.521545,52.645077 118.719315,52.645077 126.310425,52.645077 
	C125.946037,49.864975 125.828285,47.432529 125.261665,45.109566 
	C124.773293,43.107418 123.176109,41.251305 123.106247,39.293621 
	C122.842026,31.889105 123.000000,24.469524 123.000000,17.208103 
	C116.293701,17.208103 110.336487,17.208103 103.925697,17.208103 
	C104.069572,20.182882 103.135300,23.787947 104.529953,25.557697 
	C109.414963,31.756546 106.641808,38.085400 105.299629,44.955963 
M116.453819,2.000000 
	C113.360260,2.000000 110.266701,2.000000 107.314713,2.000000 
	C107.314713,6.687427 107.314713,10.750307 107.314713,14.684557 
	C112.695831,14.684557 117.757935,14.684557 122.678848,14.684557 
	C122.678848,10.298568 122.678848,6.236785 122.678848,2.000000 
	C120.713959,2.000000 119.066086,2.000000 116.453819,2.000000 
z"/>
<path fill="#FFFFFF" opacity="1.000000" stroke="none" 
	d="
M160.468658,201.000000 
	C171.066925,191.978683 182.244614,183.065994 197.546188,183.025589 
	C229.530609,182.941132 261.516174,183.132095 293.499634,182.936462 
	C306.714508,182.855652 316.227875,174.680557 318.635284,163.123749 
	C319.000000,175.638474 319.000000,188.276962 319.000000,201.000000 
	C266.312469,201.000000 213.624893,201.000000 160.468658,201.000000 
z"/>
<path fill="#FFFFFF" opacity="1.000000" stroke="none" 
	d="
M1.000001,155.468658 
	C1.333289,155.981659 1.957298,156.963608 1.956364,157.944946 
	C1.941770,173.275696 13.736279,182.925674 27.898060,182.970016 
	C58.853489,183.066925 89.810509,183.145508 120.764526,182.914841 
	C130.558426,182.841873 138.548325,186.988754 146.383652,191.927048 
	C150.610764,194.591248 154.674332,197.514923 158.905853,200.660767 
	C106.446510,201.000000 53.893021,201.000000 1.000000,201.000000 
	C1.000000,185.980804 1.000000,170.959061 1.000001,155.468658 
z"/>
<path fill="#222322" opacity="1.000000" stroke="none" 
	d="
M35.533138,1.000000 
	C45.656055,4.849687 52.247452,11.318850 54.426899,21.861965 
	C58.562164,41.866398 42.927006,58.330223 22.491837,54.675171 
	C10.272962,52.489693 2.949285,42.950924 1.365050,34.124165 
	C1.000000,29.975456 1.000000,25.950911 1.362140,21.342655 
	C3.598065,10.271145 11.011206,4.906884 20.000000,1.000000 
	C25.022093,1.000000 30.044184,1.000000 35.533138,1.000000 
M33.000000,23.580782 
	C32.999958,21.751539 32.955147,19.920971 33.009308,18.093336 
	C33.117901,14.428768 31.598530,12.176407 27.742823,12.013277 
	C23.494772,11.833547 23.101166,14.957959 23.040293,17.973974 
	C22.909449,24.456829 23.108755,30.946707 22.956371,37.428619 
	C22.874336,40.918106 24.464558,43.670620 27.592163,43.780121 
	C30.972786,43.898476 32.947330,41.112503 32.987694,37.526276 
	C33.036350,33.203159 32.999714,28.879082 33.000000,23.580782 
z"/>
<path fill="#222322" opacity="1.000000" stroke="none" 
	d="
M250.532059,1.000000 
	C251.000000,11.459832 251.000000,21.919664 251.000000,32.319939 
	C252.952591,30.154808 254.858627,28.041306 256.571808,26.141655 
	C256.522858,26.132408 255.377197,25.915916 254.119568,25.678270 
	C254.119568,22.984354 254.119568,20.332655 254.119568,17.339581 
	C260.946960,17.339581 267.813812,17.339581 274.692200,17.339581 
	C275.421509,21.884907 275.879364,25.954422 270.467590,28.237083 
	C268.329620,29.138866 266.841766,31.582073 265.406219,32.983395 
	C267.683075,40.164852 277.360046,43.267117 274.845123,52.178955 
	C263.337189,56.425941 256.685120,50.435852 251.482025,41.327915 
	C252.576721,45.254971 253.671402,49.182022 254.931976,53.704132 
	C247.092972,53.704132 240.349503,53.704132 232.583984,53.704132 
	C236.032867,36.443077 235.950333,19.148279 233.000000,1.443401 
	C238.688034,1.000000 244.376083,1.000000 250.532059,1.000000 
z"/>
<path fill="#222322" opacity="1.000000" stroke="none" 
	d="
M319.000000,52.555836 
	C303.972260,53.000000 303.972260,53.000000 302.759399,50.336990 
	C297.251526,54.931160 291.038635,54.747879 284.545441,53.157078 
	C277.357574,51.396103 275.481689,45.314945 276.003082,40.897861 
	C276.652740,35.394073 281.240295,31.339197 287.472595,31.035959 
	C291.350098,30.847294 295.244263,31.000914 298.935822,31.000914 
	C297.777924,26.159285 291.989349,25.162380 281.837769,28.929867 
	C281.590851,28.741562 281.199036,28.591368 281.127625,28.347378 
	C278.509003,19.401114 278.423004,18.810093 287.557434,17.415123 
	C293.261444,16.544027 299.480194,16.953180 305.119446,18.274847 
	C312.239380,19.943533 315.784119,25.731709 315.988251,33.199799 
	C316.060974,35.860737 315.766815,38.554764 316.097504,41.175983 
	C316.266052,42.511902 317.447571,43.720032 318.585632,44.992958 
	C319.000000,47.370556 319.000000,49.741116 319.000000,52.555836 
M295.008179,39.021816 
	C294.013458,39.798756 293.018707,40.575695 290.887054,42.240658 
	C293.560577,43.394043 295.358154,44.683651 297.193878,44.740528 
	C298.086761,44.768192 299.050995,42.491600 299.982941,41.258114 
	C298.590302,40.506046 297.197693,39.753979 295.008179,39.021816 
z"/>
<path fill="#FFFFFF" opacity="1.000000" stroke="none" 
	d="
M19.530624,1.000000 
	C11.011206,4.906884 3.598065,10.271145 1.362140,20.879471 
	C1.000000,14.409307 1.000000,7.818615 1.000000,1.000000 
	C7.018513,1.000000 13.039881,1.000000 19.530624,1.000000 
z"/>
<path fill="#FFFFFF" opacity="1.000000" stroke="none" 
	d="
M1.000000,67.468658 
	C1.331901,67.647812 1.954097,68.295784 1.953744,68.943413 
	C1.941056,92.178322 1.870224,115.413193 1.403742,138.824036 
	C1.000000,115.312439 1.000000,91.624878 1.000000,67.468658 
z"/>
<path fill="#FFFFFF" opacity="1.000000" stroke="none" 
	d="
M87.019012,149.029144 
	C88.964226,144.289612 90.818214,139.657410 91.931984,134.853577 
	C94.735542,122.761475 97.205101,110.591942 99.962631,97.735031 
	C84.058441,100.035027 67.840698,97.768799 52.069839,103.805168 
	C52.690750,96.693253 56.818596,92.289444 62.849449,89.777916 
	C67.104317,88.005981 71.704735,86.703926 76.269905,86.115463 
	C84.551857,85.047905 92.943321,84.856102 101.248810,83.935509 
	C106.699524,83.331345 112.074463,82.058640 117.495537,81.158859 
	C118.577393,80.979294 119.714554,81.132935 121.057724,81.132935 
	C119.244240,87.775269 114.802071,92.561569 109.342079,94.508980 
	C103.472969,96.602287 103.035538,100.803055 102.084709,105.152069 
	C99.256912,118.086098 96.679398,131.075119 94.060310,144.054001 
	C93.836792,145.161636 94.030724,146.353531 94.030724,147.606308 
	C96.694077,147.028702 99.136147,146.499084 101.829758,145.914917 
	C92.790489,158.203232 76.049171,164.257660 61.825111,157.267746 
	C52.426296,152.649017 46.449100,145.051865 46.110897,134.357330 
	C45.721249,122.036087 52.421188,113.690842 62.895653,108.019608 
	C63.319443,107.790154 63.804485,107.673813 63.817688,107.668922 
	C65.308578,108.555176 66.641327,110.039848 67.691269,109.861313 
	C75.635880,108.510353 83.525009,106.833168 91.662834,105.211678 
	C89.846832,121.953865 86.560829,137.693527 67.020447,144.292328 
	C73.703033,148.741547 79.625343,151.036667 87.019012,149.029144 
M60.921482,139.383362 
	C62.352303,141.510132 63.555393,141.000946 65.193947,139.382568 
	C72.918785,131.752884 72.671928,121.813446 74.177559,112.018227 
	C72.025246,112.018227 70.648270,111.778549 69.393867,112.068710 
	C66.872986,112.651833 63.009151,112.793800 62.176815,114.400864 
	C58.173420,122.130653 55.522999,130.322174 60.921482,139.383362 
z"/>
<path fill="#FFFFFF" opacity="1.000000" stroke="none" 
	d="
M168.409714,142.109558 
	C167.063232,153.842056 148.529419,160.413849 139.237732,151.755173 
	C142.625916,149.395096 145.998779,147.045685 149.371628,144.696289 
	C148.888214,144.230240 148.404785,143.764191 147.921371,143.298141 
	C146.284561,140.380615 144.108231,137.635803 143.108917,134.514206 
	C139.674377,123.785583 145.965210,115.578812 153.844498,111.068207 
	C158.191803,108.579529 162.504150,105.893600 168.067688,108.800255 
	C170.066208,109.844368 173.068161,108.967789 175.173843,108.967789 
	C173.087997,119.560745 170.897659,130.684296 168.409714,142.109558 
M159.002625,132.218170 
	C160.547745,128.438309 161.769562,124.476021 163.760483,120.947708 
	C164.935577,118.865166 165.793259,117.408058 163.334930,116.148964 
	C159.131699,113.996193 154.666733,116.037506 152.995132,120.682671 
	C150.685959,127.099571 151.800964,130.224960 157.640076,133.672714 
	C154.747681,136.241791 151.855301,138.810883 148.911224,141.425873 
	C149.974014,142.441757 150.572495,143.438889 151.422424,143.750824 
	C154.662292,144.939804 157.900497,145.846008 160.800674,142.731339 
	C163.502014,139.830215 161.163376,137.642990 160.035675,135.240265 
	C159.694122,134.512558 159.363846,133.779572 159.002625,132.218170 
z"/>
<path fill="#FFFFFF" opacity="1.000000" stroke="none" 
	d="
M241.663116,104.755646 
	C241.322800,105.246475 241.208405,105.394646 241.194458,105.551720 
	C240.409943,114.395943 241.239532,115.149910 250.771698,113.084740 
	C245.955795,119.100456 241.374359,124.073341 234.151840,124.902710 
	C227.840149,125.627480 224.919022,121.526154 226.254715,115.306931 
	C227.596573,109.059006 228.524582,102.722206 229.845154,95.225327 
	C237.244003,90.020844 237.244003,90.020844 243.260300,95.548836 
	C251.496948,85.574646 262.492554,87.514061 273.273865,89.569702 
	C267.647064,96.518990 263.726013,97.763359 255.371613,95.074387 
	C247.341232,92.489700 242.288788,96.003006 241.663116,104.755646 
z"/>
<path fill="#FFFFFF" opacity="1.000000" stroke="none" 
	d="
M212.051483,113.030205 
	C207.903152,114.035149 204.205383,115.152100 200.440994,115.957756 
	C196.369858,116.829063 193.965057,119.437973 195.087036,122.731636 
	C196.332977,126.389198 199.479752,127.095108 202.922516,126.506798 
	C205.112122,126.132629 207.248611,125.447624 210.802582,124.550018 
	C205.156204,130.659515 199.643097,133.812973 192.553925,132.910339 
	C188.203018,132.356369 185.624924,129.050064 185.136322,124.972427 
	C184.120270,116.492798 186.531464,103.228798 197.792435,98.932907 
	C202.013992,97.322449 207.186035,96.659714 211.573212,97.469460 
	C215.804520,98.250435 218.348145,102.154671 218.055847,107.186462 
	C217.838730,110.923805 216.274963,112.925125 212.051483,113.030205 
M205.997177,103.840996 
	C204.953857,102.894714 203.965790,101.274239 202.852371,101.182961 
	C201.624939,101.082336 199.573441,102.083519 199.125320,103.135063 
	C197.870178,106.080353 197.256561,109.299034 196.339066,112.592041 
	C205.755219,113.427681 205.998947,113.200203 205.997177,103.840996 
z"/>
<path fill="#FFFFFF" opacity="1.000000" stroke="none" 
	d="
M127.931183,117.440681 
	C127.579445,123.914146 126.965721,130.073013 126.359154,136.232574 
	C126.068832,139.180634 124.452187,142.752289 130.263535,144.251938 
	C126.805573,146.363480 123.544525,148.983154 119.826645,150.423996 
	C116.911545,151.553741 113.684692,150.430923 114.073006,146.318207 
	C114.620758,140.516876 115.673058,134.763351 116.501060,128.988159 
	C116.685143,127.704208 117.301224,126.251190 116.917580,125.156754 
	C115.233704,120.353188 119.207634,118.435173 121.747406,116.264847 
	C122.746979,115.410660 125.640869,116.773254 127.931183,117.440681 
z"/>
<path fill="#FFFFFF" opacity="1.000000" stroke="none" 
	d="
M123.806610,100.698975 
	C127.402649,100.775230 130.748764,101.116058 134.094879,101.456894 
	C134.159256,102.049850 134.223618,102.642807 134.287994,103.235764 
	C131.599426,105.151642 128.910843,107.067513 126.164772,109.024376 
	C123.818161,107.609116 121.493675,106.207199 119.246010,104.851608 
	C120.753571,103.491844 122.155121,102.227692 123.806610,100.698975 
z"/>
<path fill="#222322" opacity="1.000000" stroke="none" 
	d="
M193.129303,17.000000 
	C197.240036,17.000000 200.872299,17.000000 205.000061,17.000000 
	C205.000061,23.758345 204.765106,30.216272 205.148682,36.637245 
	C205.258316,38.472298 207.160706,40.200249 208.241028,41.977310 
	C209.493362,40.330841 211.845001,38.641598 211.782913,37.046284 
	C211.624405,32.972641 214.217484,27.959591 208.331055,25.050945 
	C207.290161,24.536612 208.183258,20.108330 208.183258,17.244682 
	C214.377090,17.244682 220.450684,17.244682 227.000000,17.244682 
	C227.000000,23.789679 226.913589,30.238405 227.037460,36.683090 
	C227.096939,39.777340 226.229843,42.964066 229.531189,45.588497 
	C230.739120,46.548767 229.972260,49.993206 230.126678,52.656055 
	C224.178787,52.656055 218.429749,52.656055 212.256424,52.656055 
	C212.135056,51.761181 211.978317,50.605331 211.821564,49.449486 
	C211.372574,49.088173 210.923584,48.726860 210.474594,48.365547 
	C210.322357,49.075096 210.412277,50.029907 209.980438,50.456261 
	C205.653931,54.727962 197.426437,55.830505 193.189545,51.828167 
	C190.916672,49.681129 189.727676,45.843861 189.158997,42.576221 
	C188.483429,38.694580 189.253693,34.582367 188.892746,30.616003 
	C188.712753,28.638227 187.407959,26.762815 186.611954,24.841101 
	C186.143829,25.020189 185.675705,25.199278 185.207581,25.378366 
	C185.057373,26.498137 184.907181,27.617907 184.558746,30.215647 
	C180.694977,28.820236 177.248093,27.445204 173.711823,26.362019 
	C172.287384,25.925694 170.667068,26.128778 169.135895,26.040865 
	C169.013580,26.488319 168.891266,26.935774 168.768951,27.383228 
	C171.148941,28.400156 173.484177,29.542503 175.917160,30.410988 
	C183.886414,33.255733 188.166077,38.496506 186.966934,44.118038 
	C185.464066,51.163456 178.871002,55.078186 169.956116,53.940559 
	C167.281815,53.599289 164.709625,52.076546 162.063934,51.998306 
	C159.329025,51.917427 156.561630,52.934925 153.355728,53.560246 
	C153.355728,49.528790 153.355728,46.125633 153.355728,41.886692 
	C156.163910,42.126808 159.225220,42.076488 162.130112,42.725864 
	C164.961502,43.358814 167.632935,44.707359 170.374588,45.741730 
	C170.690094,44.997780 171.005585,44.253830 171.321091,43.509880 
	C169.350006,42.671642 167.417816,41.721985 165.399963,41.017784 
	C160.854614,39.431545 156.128647,38.521736 153.923431,33.144417 
	C151.140747,26.358994 155.154953,17.836618 162.476227,17.163090 
	C166.829712,16.762587 171.321182,17.862209 175.939926,18.305561 
	C180.726181,14.960134 187.050095,18.353418 193.129303,17.000000 
z"/>
<path fill="#222322" opacity="1.000000" stroke="none" 
	d="
M59.288795,17.033875 
	C65.072464,17.005611 70.382858,17.005611 75.838921,17.005611 
	C75.939667,18.705832 76.023384,20.118618 76.032784,20.277227 
	C80.229019,19.182552 84.376839,17.921648 88.603714,17.039587 
	C95.012535,15.702198 98.947601,22.270472 98.993690,27.259756 
	C99.025978,30.755062 98.811180,34.264473 99.061050,37.742123 
	C99.253334,40.418221 97.664696,43.513493 101.512985,45.577698 
	C102.629433,46.176552 101.934570,50.152203 102.081947,52.793358 
	C95.556763,52.793358 89.485466,52.793358 82.999908,52.793358 
	C82.999908,46.481758 83.250252,40.350285 82.846275,34.262234 
	C82.726196,32.452686 80.768013,30.765106 79.652069,29.021639 
	C78.768051,30.627449 77.031830,32.307800 77.164497,33.824684 
	C77.520607,37.896030 74.915405,42.595135 79.757225,46.040333 
	C80.777000,46.765949 79.905579,50.149410 79.905579,52.654099 
	C72.719467,52.654099 65.524124,52.654099 58.050083,52.654099 
	C58.275402,49.346912 57.365940,46.442425 60.458878,43.352562 
	C62.159485,41.653645 61.150055,36.992062 60.928707,33.695377 
	C60.738979,30.869616 62.354553,27.707726 58.514923,25.316114 
	C57.352413,24.592018 58.646606,19.923788 59.288795,17.033875 
z"/>
<path fill="#222322" opacity="1.000000" stroke="none" 
	d="
M148.985962,26.000048 
	C147.678818,26.832537 146.203476,27.603445 146.116974,28.507278 
	C145.817276,31.638592 146.189438,34.830246 145.954498,37.972664 
	C145.625092,42.378784 146.634613,45.501728 151.886536,45.176067 
	C151.886536,47.872757 151.886536,50.166122 151.886536,52.729496 
	C144.710175,52.729496 137.640106,52.729496 130.155441,52.729496 
	C130.155441,44.023186 130.155441,35.289471 130.155441,26.259140 
	C128.591721,26.071619 127.391846,25.927731 126.118835,25.775070 
	C126.118835,22.800392 126.118835,20.175758 126.118835,17.592920 
	C133.023178,15.873465 128.487091,10.088032 130.540421,6.287242 
	C135.276703,6.287242 140.344879,6.287242 145.838074,6.287242 
	C145.838074,9.629993 145.838074,13.037480 145.838074,16.782433 
	C147.971802,16.913561 149.715179,17.020700 152.124649,17.168776 
	C150.339966,20.049404 155.295837,24.254179 148.985962,26.000048 
z"/>
<path fill="#222322" opacity="1.000000" stroke="none" 
	d="
M105.662109,44.694332 
	C106.641808,38.085400 109.414963,31.756546 104.529953,25.557697 
	C103.135300,23.787947 104.069572,20.182882 103.925697,17.208103 
	C110.336487,17.208103 116.293701,17.208103 123.000000,17.208103 
	C123.000000,24.469524 122.842026,31.889105 123.106247,39.293621 
	C123.176109,41.251305 124.773293,43.107418 125.261665,45.109566 
	C125.828285,47.432529 125.946037,49.864975 126.310425,52.645077 
	C118.719315,52.645077 111.521545,52.645077 103.439880,52.645077 
	C104.101799,49.908394 104.700714,47.432178 105.662109,44.694332 
z"/>
<path fill="#222322" opacity="1.000000" stroke="none" 
	d="
M116.936020,2.000000 
	C119.066086,2.000000 120.713959,2.000000 122.678848,2.000000 
	C122.678848,6.236785 122.678848,10.298568 122.678848,14.684557 
	C117.757935,14.684557 112.695831,14.684557 107.314713,14.684557 
	C107.314713,10.750307 107.314713,6.687427 107.314713,2.000000 
	C110.266701,2.000000 113.360260,2.000000 116.936020,2.000000 
z"/>
<path fill="#FFFFFF" opacity="1.000000" stroke="none" 
	d="
M33.000000,24.068100 
	C32.999714,28.879082 33.036350,33.203159 32.987694,37.526276 
	C32.947330,41.112503 30.972786,43.898476 27.592163,43.780121 
	C24.464558,43.670620 22.874336,40.918106 22.956371,37.428619 
	C23.108755,30.946707 22.909449,24.456829 23.040293,17.973974 
	C23.101166,14.957959 23.494772,11.833547 27.742823,12.013277 
	C31.598530,12.176407 33.117901,14.428768 33.009308,18.093336 
	C32.955147,19.920971 32.999958,21.751539 33.000000,24.068100 
z"/>
<path fill="#FFFFFF" opacity="1.000000" stroke="none" 
	d="
M295.406616,39.011864 
	C297.197693,39.753979 298.590302,40.506046 299.982941,41.258118 
	C299.050995,42.491600 298.086761,44.768192 297.193878,44.740528 
	C295.358154,44.683651 293.560577,43.394043 290.887054,42.240658 
	C293.018707,40.575695 294.013458,39.798756 295.406616,39.011864 
z"/>
<path fill="#222322" opacity="1.000000" stroke="none" 
	d="
M60.634232,139.123840 
	C55.522999,130.322174 58.173420,122.130653 62.176815,114.400864 
	C63.009151,112.793800 66.872986,112.651833 69.393867,112.068710 
	C70.648270,111.778549 72.025246,112.018227 74.177559,112.018227 
	C72.671928,121.813446 72.918785,131.752884 65.193947,139.382568 
	C63.555393,141.000946 62.352303,141.510132 60.634232,139.123840 
z"/>
<path fill="#222322" opacity="1.000000" stroke="none" 
	d="
M159.015533,132.633575 
	C159.363846,133.779572 159.694122,134.512558 160.035675,135.240265 
	C161.163376,137.642990 163.502014,139.830215 160.800674,142.731339 
	C157.900497,145.846008 154.662292,144.939804 151.422424,143.750824 
	C150.572495,143.438889 149.974014,142.441757 148.911224,141.425873 
	C151.855301,138.810883 154.747681,136.241791 157.634323,133.671509 
	C151.800964,130.224960 150.685959,127.099571 152.995132,120.682671 
	C154.666733,116.037506 159.131699,113.996193 163.334930,116.148964 
	C165.793259,117.408058 164.935577,118.865166 163.760483,120.947708 
	C161.769562,124.476021 160.547745,128.438309 159.015533,132.633575 
z"/>
<path fill="#222322" opacity="1.000000" stroke="none" 
	d="
M205.998474,104.280762 
	C205.998947,113.200203 205.755219,113.427681 196.339066,112.592041 
	C197.256561,109.299034 197.870178,106.080353 199.125320,103.135063 
	C199.573441,102.083519 201.624939,101.082336 202.852371,101.182961 
	C203.965790,101.274239 204.953857,102.894714 205.998474,104.280762 
z"/>
</svg>