<?xml version="1.0" encoding="utf-8"?>
<!-- Generator: Adobe Illustrator 28.4.1, SVG Export Plug-In . SVG Version: 6.00 Build 0)  -->
<svg version="1.1" id="Layer_1" xmlns="http://www.w3.org/2000/svg" xmlns:xlink="http://www.w3.org/1999/xlink" x="0px" y="0px"
	 viewBox="0 0 318 200" style="enable-background:new 0 0 318 200;" xml:space="preserve">
<style type="text/css">
	.st0{fill:#FFFFFF;}
</style>
<g transform="translate(0.000000,200.000000) scale(0.100000,-0.100000)">
	<path class="st0" d="M175,1984c-58-20-112-68-140-125c-32-62-35-181-6-244c43-95,125-145,241-145c92,0,140,20,193,80
		c53,58,67,97,67,183c0,123-62,215-169,252C306,2003,228,2003,175,1984z M302,1883c16-14,18-33,18-153c0-146-4-160-50-160
		s-50,14-50,167c0,125,2,143,18,152C263,1904,281,1902,302,1883z"/>
	<path class="st0" d="M2320,1961c0-25,5-41,15-45c13-4,15-33,15-174c0-139-3-172-15-182c-8-7-15-28-15-46v-34h100h100v36
		c0,19-7,42-15,50c-13,14-22,64-11,64c3,0,29-34,57-75l53-75h68h68v33c0,25-10,44-38,75c-21,23-44,53-52,67c-12,23-11,28,15,55
		c16,16,37,32,47,36c13,4,18,15,18,45v39h-95h-95v-35c0-28,4-35,20-35c30,0,25-14-22-56l-43-38l-3,167l-2,167h-85h-85V1961z"/>
	<path class="st0" d="M1070,1925v-55h75h75v55v55h-75h-75V1925z"/>
	<path class="st0" d="M1300,1906c0-42-18-76-41-76c-5,0-9-16-9-35c0-28,4-35,20-35c19,0,20-7,20-140v-140h105h105v34
		c0,28-5,37-27,48c-27,13-28,16-31,101l-3,87h31c28,0,30,2,30,40s-2,40-30,40h-30v60v60h-70h-70V1906z"/>
	<path class="st0" d="M820,1829c-14-5-37-22-52-36l-28-27v32v32h-85h-85v-35c0-22,6-38,15-41c12-5,15-26,15-99s-3-94-15-99
		c-9-3-15-19-15-41v-35h105h105v34c0,18-7,39-15,46c-21,18-21,133,1,154c19,19,26,20,42,4c8-8,12-50,12-125v-113h90h90v39
		c0,25-5,41-15,45c-12,4-15,26-15,110c0,94-2,108-23,131C922,1835,861,1846,820,1829z"/>
	<path class="st0" d="M1594,1826c-43-19-64-53-64-104c0-57,35-93,113-116c44-13,57-21,57-36c0-26-35-26-75,0c-16,11-45,20-62,20h-33
		v-55v-55h40c30,0,40,4,40,16c0,15,2,15,24,1c40-26,92-31,141-13c52,20,75,52,75,104c0,56-28,86-105,113c-36,13-67,30-70,37
		c-8,21,26,27,57,9c17-9,45-17,64-17h34v50v50h-35c-24,0-35-5-35-15c0-12-6-12-37,5C1680,1843,1638,1845,1594,1826z"/>
	<path class="st0" d="M2845,1827c-50-13-50-13-48-51c2-22,4-41,6-43c2-1,28,2,58,8c68,14,129-6,129-42c0-15-4-19-16-15
		c-68,26-140,17-184-24c-25-23-30-36-30-74c0-36,6-52,24-71c51-51,160-55,216-8l30,25v-26c0-25,1-26,70-26h70v34c0,18-6,39-14,45
		c-10,8-15,40-18,101c-3,78-6,92-28,115c-14,15-38,34-53,42C3018,1837,2906,1842,2845,1827z M2988,1608c19-19-4-48-39-48
		c-31,0-46,18-35,45C2920,1623,2971,1625,2988,1608z"/>
	<path class="st0" d="M1040,1796c0-18,7-39,15-46c11-9,15-34,15-95s-4-86-15-95c-8-7-15-28-15-46v-34h105h105v35c0,22-6,38-15,41
		c-12,5-15,30-15,140v134h-90h-90V1796z"/>
	<path class="st0" d="M1860,1796c0-18,7-39,15-46c11-10,15-36,15-112c0-110,10-137,60-158c41-17,94-5,135,32l35,30v-31v-31h85h85v34
		c0,18-7,39-15,46c-12,10-15,39-15,141v129h-90h-90v-34c0-18,7-39,15-46c10-9,15-31,15-74c0-72-9-89-41-84c-24,3-24,5-27,121l-3,117
		h-89h-90V1796z"/>
	<path class="st0" d="M10,922c0-586,0-583,78-661c29-28,63-51,88-59c30-9,178-12,551-12c565,0,558,1,683-67c36-19,89-53,119-75
		l53-40l30,22c70,51,121,82,194,117l79,38l560,5c554,5,560,5,601,27c23,12,54,37,69,55c62,73,60,55,63,631l3,527H1596H10V922z
		 M1210,1197c0-35-72-112-132-143c-27-13-48-28-48-32c0-4-22-114-49-245l-49-239l27,7c14,3,34,8,44,11c59,18-48-82-133-123
		c-75-36-182-38-255-5c-162,74-218,258-121,400c48,69,188,163,157,104c-9-17-3-17,112,4c173,33,158,40,135-63c-31-145-37-162-71-200
		c-18-20-58-53-89-74c-43-27-54-39-45-47c22-18,91-34,136-30l45,3l52,240c29,132,53,245,54,251c0,6-10,10-22,8c-13-2-93-8-178-13
		c-103-7-176-16-218-30l-64-19l7,26c12,50,56,101,109,127c52,25,107,35,331,55c66,6,147,17,180,25C1204,1212,1210,1212,1210,1197z
		 M2655,1133c39-3,74-8,78-13c5-4-15-24-43-45c-47-35-54-37-98-30c-125,18-122,18-147-5c-16-15-27-43-35-87c-16-85-6-93,84-66
		c29,8-32-66-81-100s-87-42-122-27c-48,19-54,48-31,153c11,51,18,103,16,117c-4,19,3,31,30,54l34,28l42-21l42-20l53,30
		c29,17,55,35,59,40c3,6,16,8,28,4C2575,1141,2617,1136,2655,1133z M2138,1023c29-22,41-61,32-108c-6-29-9-31-113-54l-107-24v-33
		c0-54,37-65,129-38c21,6,22,5,12-14c-19-37-98-76-153-76c-43-1-53,3-75,28c-23,27-25,36-21,111c3,70,7,89,33,130
		c41,67,119,109,188,102C2090,1045,2124,1034,2138,1023z M1305,1003c19-9,35-20,35-23c0-4-19-21-43-37l-43-31l-37,21
		c-20,11-37,24-37,28c0,12,60,59,75,59C1263,1020,1285,1012,1305,1003z M1714,930c42,0,48-2,43-17c-36-109-60-201-67-262
		c-18-137-81-201-198-201c-52,0-112,21-112,40c0,5,20,26,44,46l44,37l-26,39c-59,89-35,205,57,272c63,47,89,57,131,51
		C1649,932,1687,930,1714,930z M1270,840c24-24,24-31,0-145c-10-49-16-93-14-97c3-5,17-8,31-8h27l-30-31c-37-39-75-59-113-59
		c-49,0-55,25-37,135c9,51,16,108,16,126c0,24,9,44,31,67C1216,865,1242,868,1270,840z"/>
	<path class="st0" d="M685,883c-11-2-30-6-43-9c-44-9-84-143-62-208c40-123,110-27,143,197C727,890,724,892,685,883z"/>
	<path class="st0" d="M1985,974c-9-14-19-42-22-61l-6-36l33,6c18,4,36,7,41,7c14,0,21,67,10,89C2025,1007,2006,1005,1985,974z"/>
	<path class="st0" d="M1541,823c-12-14-24-36-27-49c-7-29,16-78,39-82c17-4,21,2,31,50c3,14,17,40,31,57c25,29,25,30,6,40
		C1589,857,1563,852,1541,823z"/>
	<path class="st0" d="M1531,635c-32-30-39-40-30-51c14-17,71-18,87-2s15,50-1,73C1574,672,1571,671,1531,635z"/>
</g>
</svg>
